%TF.GenerationSoftware,KiCad,Pcbnew,8.0.7*%
%TF.CreationDate,2025-03-07T17:05:54+07:00*%
%TF.ProjectId,BTL_NGUYENTRUNG,42544c5f-4e47-4555-9945-4e5452554e47,rev?*%
%TF.SameCoordinates,Original*%
%TF.FileFunction,Copper,L2,Bot*%
%TF.FilePolarity,Positive*%
%FSLAX46Y46*%
G04 Gerber Fmt 4.6, Leading zero omitted, Abs format (unit mm)*
G04 Created by KiCad (PCBNEW 8.0.7) date 2025-03-07 17:05:54*
%MOMM*%
%LPD*%
G01*
G04 APERTURE LIST*
%TA.AperFunction,HeatsinkPad*%
%ADD10C,0.500000*%
%TD*%
%TA.AperFunction,HeatsinkPad*%
%ADD11R,2.500000X1.800000*%
%TD*%
%TA.AperFunction,ComponentPad*%
%ADD12R,1.700000X1.700000*%
%TD*%
%TA.AperFunction,ComponentPad*%
%ADD13O,1.700000X1.700000*%
%TD*%
%TA.AperFunction,ViaPad*%
%ADD14C,0.800000*%
%TD*%
%TA.AperFunction,Conductor*%
%ADD15C,0.250000*%
%TD*%
%TA.AperFunction,Profile*%
%ADD16C,0.200000*%
%TD*%
G04 APERTURE END LIST*
D10*
%TO.P,U3,9,EPAD*%
%TO.N,GND*%
X71700000Y-27050000D03*
X72700000Y-27050000D03*
X73700000Y-27050000D03*
D11*
X72700000Y-26400000D03*
D10*
X71700000Y-25750000D03*
X72700000Y-25750000D03*
X73700000Y-25750000D03*
%TD*%
D12*
%TO.P,J2,1,Pin_1*%
%TO.N,GND*%
X44800000Y-96380000D03*
D13*
%TO.P,J2,2,Pin_2*%
%TO.N,+5V*%
X44800000Y-93840000D03*
%TO.P,J2,3,Pin_3*%
%TO.N,GND*%
X44800000Y-91300000D03*
%TO.P,J2,4,Pin_4*%
%TO.N,/MCU/RS*%
X44800000Y-88760000D03*
%TO.P,J2,5,Pin_5*%
%TO.N,/MCU/RW*%
X44800000Y-86220000D03*
%TO.P,J2,6,Pin_6*%
%TO.N,/MCU/E*%
X44800000Y-83680000D03*
%TO.P,J2,7,Pin_7*%
%TO.N,/MCU/D0*%
X44800000Y-81140000D03*
%TO.P,J2,8,Pin_8*%
%TO.N,/MCU/D1*%
X44800000Y-78600000D03*
%TO.P,J2,9,Pin_9*%
%TO.N,/MCU/D2*%
X44800000Y-76060000D03*
%TO.P,J2,10,Pin_10*%
%TO.N,/MCU/D3*%
X44800000Y-73520000D03*
%TO.P,J2,11,Pin_11*%
%TO.N,/MCU/D4*%
X44800000Y-70980000D03*
%TO.P,J2,12,Pin_12*%
%TO.N,/MCU/D5*%
X44800000Y-68440000D03*
%TO.P,J2,13,Pin_13*%
%TO.N,/MCU/D6*%
X44800000Y-65900000D03*
%TO.P,J2,14,Pin_14*%
%TO.N,/MCU/D7*%
X44800000Y-63360000D03*
%TO.P,J2,15,Pin_15*%
%TO.N,/MCU/A*%
X44800000Y-60820000D03*
%TO.P,J2,16,Pin_16*%
%TO.N,/MCU/K*%
X44800000Y-58280000D03*
%TD*%
D12*
%TO.P,J7,1,Pin_1*%
%TO.N,GND*%
X70880000Y-97400000D03*
D13*
%TO.P,J7,2,Pin_2*%
%TO.N,/MCU/TR*%
X73420000Y-97400000D03*
%TO.P,J7,3,Pin_3*%
%TO.N,/MCU/ECHO*%
X75960000Y-97400000D03*
%TO.P,J7,4,Pin_4*%
%TO.N,+5V*%
X78500000Y-97400000D03*
%TD*%
D12*
%TO.P,J1,1,Pin_1*%
%TO.N,+5V*%
X57700000Y-76660000D03*
D13*
%TO.P,J1,2,Pin_2*%
%TO.N,unconnected-(J1-Pin_2-Pad2)*%
X57700000Y-79200000D03*
%TO.P,J1,3,Pin_3*%
%TO.N,unconnected-(J1-Pin_3-Pad3)*%
X57700000Y-81740000D03*
%TO.P,J1,4,Pin_4*%
%TO.N,/MCU/TX*%
X57700000Y-84280000D03*
%TO.P,J1,5,Pin_5*%
%TO.N,/MCU/RX*%
X57700000Y-86820000D03*
%TO.P,J1,6,Pin_6*%
%TO.N,GND*%
X57700000Y-89360000D03*
%TD*%
D12*
%TO.P,J8,1,Pin_1*%
%TO.N,GND*%
X50100000Y-53400000D03*
D13*
%TO.P,J8,2,Pin_2*%
%TO.N,/MCU/DT*%
X52640000Y-53400000D03*
%TO.P,J8,3,Pin_3*%
%TO.N,/MCU/SCK*%
X55180000Y-53400000D03*
%TO.P,J8,4,Pin_4*%
%TO.N,+5V*%
X57720000Y-53400000D03*
%TD*%
D12*
%TO.P,J10,1,Pin_1*%
%TO.N,GND*%
X83400000Y-26075000D03*
D13*
%TO.P,J10,2,Pin_2*%
%TO.N,12*%
X83400000Y-23535000D03*
%TD*%
D12*
%TO.P,J5,1,Pin_1*%
%TO.N,Net-(J5-Pin_1)*%
X53920000Y-96677500D03*
D13*
%TO.P,J5,2,Pin_2*%
%TO.N,+5V*%
X56460000Y-96677500D03*
%TO.P,J5,3,Pin_3*%
%TO.N,GND*%
X59000000Y-96677500D03*
%TO.P,J5,4,Pin_4*%
%TO.N,Net-(J5-Pin_4)*%
X61540000Y-96677500D03*
%TO.P,J5,5,Pin_5*%
%TO.N,Net-(J5-Pin_5)*%
X64080000Y-96677500D03*
%TD*%
D14*
%TO.N,GND*%
X71200000Y-67900000D03*
X70300000Y-68800000D03*
X71200000Y-68800000D03*
X70300000Y-67900000D03*
%TO.N,+5V*%
X79700000Y-65100000D03*
X76412500Y-53600000D03*
%TO.N,/MCU/ECHO*%
X67200000Y-83300000D03*
%TO.N,/MCU/D7*%
X73300000Y-80800000D03*
%TO.N,/MCU/DT*%
X68100000Y-73600000D03*
%TO.N,/MCU/D6*%
X72300000Y-80800000D03*
%TO.N,/MCU/D4*%
X70100000Y-80900000D03*
%TO.N,/MCU/E*%
X68071265Y-79896570D03*
%TO.N,/MCU/D5*%
X71299994Y-80900000D03*
%TO.N,/MCU/SCK*%
X73500000Y-77700000D03*
%TO.N,/MCU/RS*%
X68100499Y-80896145D03*
%TO.N,Net-(D3-K)*%
X70200000Y-44600000D03*
X70700000Y-31100000D03*
%TO.N,/MCU/TR*%
X63800000Y-84100000D03*
%TO.N,/MCU/TX*%
X63500000Y-86500000D03*
X67300000Y-88600000D03*
%TO.N,Net-(U1-RB7{slash}ICSPDAT)*%
X79700000Y-82500000D03*
X61400000Y-89500000D03*
%TO.N,Net-(U1-RB6{slash}ICSPCLK)*%
X62500000Y-90300000D03*
X74500000Y-81700000D03*
%TD*%
D15*
%TO.N,+5V*%
X79700000Y-54800000D02*
X78500000Y-53600000D01*
X57700000Y-99000000D02*
X77600000Y-99000000D01*
X78500000Y-53600000D02*
X76412500Y-53600000D01*
X79700000Y-65100000D02*
X79700000Y-54800000D01*
X44840000Y-93800000D02*
X44800000Y-93840000D01*
X44800000Y-93840000D02*
X55140000Y-93840000D01*
X77600000Y-99000000D02*
X78800000Y-97800000D01*
X78800000Y-97800000D02*
X78800000Y-96777500D01*
X56460000Y-95160000D02*
X56460000Y-96677500D01*
X56460000Y-97760000D02*
X57700000Y-99000000D01*
X55140000Y-93840000D02*
X56460000Y-95160000D01*
X56460000Y-96677500D02*
X56460000Y-97760000D01*
%TO.N,/MCU/ECHO*%
X75960000Y-87860000D02*
X71400000Y-83300000D01*
X75960000Y-97400000D02*
X75960000Y-87860000D01*
X71400000Y-83300000D02*
X67200000Y-83300000D01*
%TO.N,/MCU/D7*%
X73300000Y-80800000D02*
X73025000Y-80525000D01*
X73025000Y-80525000D02*
X73025000Y-80499695D01*
X55860000Y-63360000D02*
X44800000Y-63360000D01*
X72575000Y-80075000D02*
X55860000Y-63360000D01*
X72600305Y-80075000D02*
X72575000Y-80075000D01*
X73025000Y-80499695D02*
X72600305Y-80075000D01*
%TO.N,/MCU/DT*%
X68100000Y-71200000D02*
X52640000Y-55740000D01*
X52640000Y-55740000D02*
X52640000Y-53400000D01*
X68100000Y-73600000D02*
X68100000Y-71200000D01*
%TO.N,/MCU/D6*%
X57400000Y-65900000D02*
X44800000Y-65900000D01*
X72300000Y-80800000D02*
X57400000Y-65900000D01*
%TO.N,/MCU/D4*%
X60180000Y-70980000D02*
X44800000Y-70980000D01*
X70100000Y-80900000D02*
X60180000Y-70980000D01*
%TO.N,/MCU/E*%
X60100000Y-71700000D02*
X48400000Y-71700000D01*
X48400000Y-71700000D02*
X47000000Y-73100000D01*
X68071265Y-79896570D02*
X68071265Y-79671265D01*
X68071265Y-79671265D02*
X60100000Y-71700000D01*
X47000000Y-81480000D02*
X44800000Y-83680000D01*
X47000000Y-73100000D02*
X47000000Y-81480000D01*
%TO.N,/MCU/D5*%
X71299994Y-80899994D02*
X58840000Y-68440000D01*
X58840000Y-68440000D02*
X44800000Y-68440000D01*
X71299994Y-80900000D02*
X71299994Y-80899994D01*
%TO.N,/MCU/SCK*%
X73500000Y-77700000D02*
X73500000Y-75600000D01*
X55180000Y-57280000D02*
X55180000Y-53400000D01*
X73500000Y-75600000D02*
X55180000Y-57280000D01*
%TO.N,/MCU/RS*%
X48800000Y-72300000D02*
X47800000Y-73300000D01*
X59449390Y-72300000D02*
X48800000Y-72300000D01*
X68100499Y-80896145D02*
X67939974Y-80735620D01*
X47800000Y-73300000D02*
X47800000Y-85760000D01*
X47800000Y-85760000D02*
X44800000Y-88760000D01*
X67939974Y-80735620D02*
X67885010Y-80735620D01*
X68045535Y-80896145D02*
X59449390Y-72300000D01*
X68100499Y-80896145D02*
X68045535Y-80896145D01*
%TO.N,Net-(D3-K)*%
X70700000Y-31100000D02*
X70700000Y-44100000D01*
X70700000Y-44100000D02*
X70200000Y-44600000D01*
%TO.N,/MCU/TR*%
X73420000Y-89320000D02*
X68200000Y-84100000D01*
X68200000Y-84100000D02*
X63800000Y-84100000D01*
X73420000Y-97400000D02*
X73420000Y-89320000D01*
%TO.N,/MCU/TX*%
X67300000Y-87400000D02*
X67300000Y-88600000D01*
X63500000Y-86500000D02*
X66400000Y-86500000D01*
X66400000Y-86500000D02*
X67300000Y-87400000D01*
%TO.N,Net-(U1-RB7{slash}ICSPDAT)*%
X61400000Y-84700000D02*
X63600000Y-82500000D01*
X61400000Y-89500000D02*
X61400000Y-84700000D01*
X63600000Y-82500000D02*
X79700000Y-82500000D01*
%TO.N,Net-(U1-RB6{slash}ICSPCLK)*%
X62500000Y-90300000D02*
X62475000Y-90325000D01*
X61125000Y-90325000D02*
X60675000Y-89875000D01*
X63500000Y-81700000D02*
X74500000Y-81700000D01*
X60675000Y-84525000D02*
X63500000Y-81700000D01*
X62475000Y-90325000D02*
X61125000Y-90325000D01*
X60675000Y-89875000D02*
X60675000Y-84525000D01*
%TD*%
%TA.AperFunction,Conductor*%
%TO.N,GND*%
G36*
X86943039Y-20219685D02*
G01*
X86988794Y-20272489D01*
X87000000Y-20324000D01*
X87000000Y-100076000D01*
X86980315Y-100143039D01*
X86927511Y-100188794D01*
X86876000Y-100200000D01*
X53325544Y-100200000D01*
X53324439Y-100199995D01*
X42222895Y-100101094D01*
X42156034Y-100080813D01*
X42110751Y-100027604D01*
X42100000Y-99977099D01*
X42100000Y-95807747D01*
X52869500Y-95807747D01*
X52869500Y-97547252D01*
X52881131Y-97605729D01*
X52881132Y-97605730D01*
X52925447Y-97672052D01*
X52991769Y-97716367D01*
X52991770Y-97716368D01*
X53050247Y-97727999D01*
X53050250Y-97728000D01*
X53050252Y-97728000D01*
X54789750Y-97728000D01*
X54789751Y-97727999D01*
X54804568Y-97725052D01*
X54848229Y-97716368D01*
X54848229Y-97716367D01*
X54848231Y-97716367D01*
X54914552Y-97672052D01*
X54958867Y-97605731D01*
X54958867Y-97605729D01*
X54958868Y-97605729D01*
X54970499Y-97547252D01*
X54970500Y-97547250D01*
X54970500Y-95807749D01*
X54970499Y-95807747D01*
X54958868Y-95749270D01*
X54958867Y-95749269D01*
X54914552Y-95682947D01*
X54848230Y-95638632D01*
X54848229Y-95638631D01*
X54789752Y-95627000D01*
X54789748Y-95627000D01*
X53050252Y-95627000D01*
X53050247Y-95627000D01*
X52991770Y-95638631D01*
X52991769Y-95638632D01*
X52925447Y-95682947D01*
X52881132Y-95749269D01*
X52881131Y-95749270D01*
X52869500Y-95807747D01*
X42100000Y-95807747D01*
X42100000Y-86220000D01*
X43744417Y-86220000D01*
X43764699Y-86425932D01*
X43764700Y-86425934D01*
X43824768Y-86623954D01*
X43922315Y-86806450D01*
X43922317Y-86806452D01*
X44053589Y-86966410D01*
X44150209Y-87045702D01*
X44213550Y-87097685D01*
X44396046Y-87195232D01*
X44594066Y-87255300D01*
X44594065Y-87255300D01*
X44612529Y-87257118D01*
X44800000Y-87275583D01*
X45005934Y-87255300D01*
X45203954Y-87195232D01*
X45386450Y-87097685D01*
X45546410Y-86966410D01*
X45677685Y-86806450D01*
X45775232Y-86623954D01*
X45835300Y-86425934D01*
X45855583Y-86220000D01*
X45835300Y-86014066D01*
X45775232Y-85816046D01*
X45677685Y-85633550D01*
X45625702Y-85570209D01*
X45546410Y-85473589D01*
X45386452Y-85342317D01*
X45386453Y-85342317D01*
X45386450Y-85342315D01*
X45203954Y-85244768D01*
X45005934Y-85184700D01*
X45005932Y-85184699D01*
X45005934Y-85184699D01*
X44800000Y-85164417D01*
X44594067Y-85184699D01*
X44396043Y-85244769D01*
X44285898Y-85303643D01*
X44213550Y-85342315D01*
X44213548Y-85342316D01*
X44213547Y-85342317D01*
X44053589Y-85473589D01*
X43922317Y-85633547D01*
X43824769Y-85816043D01*
X43764699Y-86014067D01*
X43744417Y-86220000D01*
X42100000Y-86220000D01*
X42100000Y-81140000D01*
X43744417Y-81140000D01*
X43764699Y-81345932D01*
X43772197Y-81370648D01*
X43824768Y-81543954D01*
X43922315Y-81726450D01*
X43954107Y-81765189D01*
X44053589Y-81886410D01*
X44150209Y-81965702D01*
X44213550Y-82017685D01*
X44396046Y-82115232D01*
X44594066Y-82175300D01*
X44594065Y-82175300D01*
X44612529Y-82177118D01*
X44800000Y-82195583D01*
X45005934Y-82175300D01*
X45203954Y-82115232D01*
X45386450Y-82017685D01*
X45546410Y-81886410D01*
X45677685Y-81726450D01*
X45775232Y-81543954D01*
X45835300Y-81345934D01*
X45855583Y-81140000D01*
X45835300Y-80934066D01*
X45775232Y-80736046D01*
X45677685Y-80553550D01*
X45555611Y-80404801D01*
X45546410Y-80393589D01*
X45386452Y-80262317D01*
X45386453Y-80262317D01*
X45386450Y-80262315D01*
X45203954Y-80164768D01*
X45005934Y-80104700D01*
X45005932Y-80104699D01*
X45005934Y-80104699D01*
X44800000Y-80084417D01*
X44594067Y-80104699D01*
X44396043Y-80164769D01*
X44302152Y-80214956D01*
X44213550Y-80262315D01*
X44213548Y-80262316D01*
X44213547Y-80262317D01*
X44053589Y-80393589D01*
X43922317Y-80553547D01*
X43922315Y-80553550D01*
X43883643Y-80625898D01*
X43824769Y-80736043D01*
X43824768Y-80736045D01*
X43824768Y-80736046D01*
X43821842Y-80745693D01*
X43764699Y-80934067D01*
X43744417Y-81140000D01*
X42100000Y-81140000D01*
X42100000Y-78600000D01*
X43744417Y-78600000D01*
X43764699Y-78805932D01*
X43764700Y-78805934D01*
X43824768Y-79003954D01*
X43922315Y-79186450D01*
X43922317Y-79186452D01*
X44053589Y-79346410D01*
X44150209Y-79425702D01*
X44213550Y-79477685D01*
X44396046Y-79575232D01*
X44594066Y-79635300D01*
X44594065Y-79635300D01*
X44612529Y-79637118D01*
X44800000Y-79655583D01*
X45005934Y-79635300D01*
X45203954Y-79575232D01*
X45386450Y-79477685D01*
X45546410Y-79346410D01*
X45677685Y-79186450D01*
X45775232Y-79003954D01*
X45835300Y-78805934D01*
X45855583Y-78600000D01*
X45835300Y-78394066D01*
X45775232Y-78196046D01*
X45677685Y-78013550D01*
X45625702Y-77950209D01*
X45546410Y-77853589D01*
X45386452Y-77722317D01*
X45386453Y-77722317D01*
X45386450Y-77722315D01*
X45203954Y-77624768D01*
X45005934Y-77564700D01*
X45005932Y-77564699D01*
X45005934Y-77564699D01*
X44800000Y-77544417D01*
X44594067Y-77564699D01*
X44396043Y-77624769D01*
X44285898Y-77683643D01*
X44213550Y-77722315D01*
X44213548Y-77722316D01*
X44213547Y-77722317D01*
X44053589Y-77853589D01*
X43922317Y-78013547D01*
X43824769Y-78196043D01*
X43764699Y-78394067D01*
X43744417Y-78600000D01*
X42100000Y-78600000D01*
X42100000Y-76060000D01*
X43744417Y-76060000D01*
X43764699Y-76265932D01*
X43764700Y-76265934D01*
X43824768Y-76463954D01*
X43922315Y-76646450D01*
X43922317Y-76646452D01*
X44053589Y-76806410D01*
X44150209Y-76885702D01*
X44213550Y-76937685D01*
X44396046Y-77035232D01*
X44594066Y-77095300D01*
X44594065Y-77095300D01*
X44612529Y-77097118D01*
X44800000Y-77115583D01*
X45005934Y-77095300D01*
X45203954Y-77035232D01*
X45386450Y-76937685D01*
X45546410Y-76806410D01*
X45677685Y-76646450D01*
X45775232Y-76463954D01*
X45835300Y-76265934D01*
X45855583Y-76060000D01*
X45835300Y-75854066D01*
X45775232Y-75656046D01*
X45677685Y-75473550D01*
X45617436Y-75400136D01*
X45546410Y-75313589D01*
X45386452Y-75182317D01*
X45386453Y-75182317D01*
X45386450Y-75182315D01*
X45203954Y-75084768D01*
X45005934Y-75024700D01*
X45005932Y-75024699D01*
X45005934Y-75024699D01*
X44800000Y-75004417D01*
X44594067Y-75024699D01*
X44396043Y-75084769D01*
X44285898Y-75143643D01*
X44213550Y-75182315D01*
X44213548Y-75182316D01*
X44213547Y-75182317D01*
X44053589Y-75313589D01*
X43922317Y-75473547D01*
X43824769Y-75656043D01*
X43764699Y-75854067D01*
X43744417Y-76060000D01*
X42100000Y-76060000D01*
X42100000Y-73520000D01*
X43744417Y-73520000D01*
X43764699Y-73725932D01*
X43764700Y-73725934D01*
X43824768Y-73923954D01*
X43922315Y-74106450D01*
X43922317Y-74106452D01*
X44053589Y-74266410D01*
X44150209Y-74345702D01*
X44213550Y-74397685D01*
X44396046Y-74495232D01*
X44594066Y-74555300D01*
X44594065Y-74555300D01*
X44612529Y-74557118D01*
X44800000Y-74575583D01*
X45005934Y-74555300D01*
X45203954Y-74495232D01*
X45386450Y-74397685D01*
X45546410Y-74266410D01*
X45677685Y-74106450D01*
X45775232Y-73923954D01*
X45835300Y-73725934D01*
X45855583Y-73520000D01*
X45835300Y-73314066D01*
X45775232Y-73116046D01*
X45677685Y-72933550D01*
X45625702Y-72870209D01*
X45546410Y-72773589D01*
X45386452Y-72642317D01*
X45386453Y-72642317D01*
X45386450Y-72642315D01*
X45203954Y-72544768D01*
X45005934Y-72484700D01*
X45005932Y-72484699D01*
X45005934Y-72484699D01*
X44800000Y-72464417D01*
X44594067Y-72484699D01*
X44396043Y-72544769D01*
X44285898Y-72603643D01*
X44213550Y-72642315D01*
X44213548Y-72642316D01*
X44213547Y-72642317D01*
X44053589Y-72773589D01*
X43922317Y-72933547D01*
X43922315Y-72933550D01*
X43883643Y-73005898D01*
X43824769Y-73116043D01*
X43764699Y-73314067D01*
X43744417Y-73520000D01*
X42100000Y-73520000D01*
X42100000Y-63360000D01*
X43744417Y-63360000D01*
X43764699Y-63565932D01*
X43764700Y-63565934D01*
X43824768Y-63763954D01*
X43922315Y-63946450D01*
X43922317Y-63946452D01*
X44053589Y-64106410D01*
X44150209Y-64185702D01*
X44213550Y-64237685D01*
X44396046Y-64335232D01*
X44594066Y-64395300D01*
X44594065Y-64395300D01*
X44612529Y-64397118D01*
X44800000Y-64415583D01*
X45005934Y-64395300D01*
X45203954Y-64335232D01*
X45386450Y-64237685D01*
X45546410Y-64106410D01*
X45677685Y-63946450D01*
X45775232Y-63763954D01*
X45775234Y-63763945D01*
X45776021Y-63762049D01*
X45776701Y-63761203D01*
X45778104Y-63758581D01*
X45778601Y-63758846D01*
X45819862Y-63707645D01*
X45886156Y-63685579D01*
X45890583Y-63685500D01*
X55673811Y-63685500D01*
X55740850Y-63705185D01*
X55761492Y-63721819D01*
X57402492Y-65362819D01*
X57435977Y-65424142D01*
X57430993Y-65493834D01*
X57389121Y-65549767D01*
X57323657Y-65574184D01*
X57314811Y-65574500D01*
X45890583Y-65574500D01*
X45823544Y-65554815D01*
X45777789Y-65502011D01*
X45776021Y-65497951D01*
X45775233Y-65496051D01*
X45775232Y-65496046D01*
X45677685Y-65313550D01*
X45625702Y-65250209D01*
X45546410Y-65153589D01*
X45386452Y-65022317D01*
X45386453Y-65022317D01*
X45386450Y-65022315D01*
X45203954Y-64924768D01*
X45005934Y-64864700D01*
X45005932Y-64864699D01*
X45005934Y-64864699D01*
X44800000Y-64844417D01*
X44594067Y-64864699D01*
X44396043Y-64924769D01*
X44361491Y-64943238D01*
X44213550Y-65022315D01*
X44213548Y-65022316D01*
X44213547Y-65022317D01*
X44053589Y-65153589D01*
X43922317Y-65313547D01*
X43824769Y-65496043D01*
X43764699Y-65694067D01*
X43744417Y-65900000D01*
X43764699Y-66105932D01*
X43764700Y-66105934D01*
X43824768Y-66303954D01*
X43922315Y-66486450D01*
X43922317Y-66486452D01*
X44053589Y-66646410D01*
X44150209Y-66725702D01*
X44213550Y-66777685D01*
X44396046Y-66875232D01*
X44594066Y-66935300D01*
X44594065Y-66935300D01*
X44612529Y-66937118D01*
X44800000Y-66955583D01*
X45005934Y-66935300D01*
X45203954Y-66875232D01*
X45386450Y-66777685D01*
X45546410Y-66646410D01*
X45677685Y-66486450D01*
X45775232Y-66303954D01*
X45775234Y-66303945D01*
X45776021Y-66302049D01*
X45776701Y-66301203D01*
X45778104Y-66298581D01*
X45778601Y-66298846D01*
X45819862Y-66247645D01*
X45886156Y-66225579D01*
X45890583Y-66225500D01*
X57213811Y-66225500D01*
X57280850Y-66245185D01*
X57301492Y-66261819D01*
X58942492Y-67902819D01*
X58975977Y-67964142D01*
X58970993Y-68033834D01*
X58929121Y-68089767D01*
X58863657Y-68114184D01*
X58854811Y-68114500D01*
X45890583Y-68114500D01*
X45823544Y-68094815D01*
X45777789Y-68042011D01*
X45776021Y-68037951D01*
X45775233Y-68036051D01*
X45775232Y-68036046D01*
X45677685Y-67853550D01*
X45625702Y-67790209D01*
X45546410Y-67693589D01*
X45386452Y-67562317D01*
X45386453Y-67562317D01*
X45386450Y-67562315D01*
X45203954Y-67464768D01*
X45005934Y-67404700D01*
X45005932Y-67404699D01*
X45005934Y-67404699D01*
X44800000Y-67384417D01*
X44594067Y-67404699D01*
X44396043Y-67464769D01*
X44285898Y-67523643D01*
X44213550Y-67562315D01*
X44213548Y-67562316D01*
X44213547Y-67562317D01*
X44053589Y-67693589D01*
X43922317Y-67853547D01*
X43824769Y-68036043D01*
X43764699Y-68234067D01*
X43744417Y-68440000D01*
X43764699Y-68645932D01*
X43764700Y-68645934D01*
X43824768Y-68843954D01*
X43922315Y-69026450D01*
X43922317Y-69026452D01*
X44053589Y-69186410D01*
X44150209Y-69265702D01*
X44213550Y-69317685D01*
X44396046Y-69415232D01*
X44594066Y-69475300D01*
X44594065Y-69475300D01*
X44612529Y-69477118D01*
X44800000Y-69495583D01*
X45005934Y-69475300D01*
X45203954Y-69415232D01*
X45386450Y-69317685D01*
X45546410Y-69186410D01*
X45677685Y-69026450D01*
X45775232Y-68843954D01*
X45775234Y-68843945D01*
X45776021Y-68842049D01*
X45776701Y-68841203D01*
X45778104Y-68838581D01*
X45778601Y-68838846D01*
X45819862Y-68787645D01*
X45886156Y-68765579D01*
X45890583Y-68765500D01*
X58653811Y-68765500D01*
X58720850Y-68785185D01*
X58741492Y-68801819D01*
X60402855Y-70463182D01*
X60436340Y-70524505D01*
X60431356Y-70594197D01*
X60389484Y-70650130D01*
X60324020Y-70674547D01*
X60283082Y-70670638D01*
X60222853Y-70654500D01*
X60222852Y-70654500D01*
X45890583Y-70654500D01*
X45823544Y-70634815D01*
X45777789Y-70582011D01*
X45776021Y-70577951D01*
X45775233Y-70576051D01*
X45775232Y-70576046D01*
X45677685Y-70393550D01*
X45625702Y-70330209D01*
X45546410Y-70233589D01*
X45386452Y-70102317D01*
X45386453Y-70102317D01*
X45386450Y-70102315D01*
X45203954Y-70004768D01*
X45005934Y-69944700D01*
X45005932Y-69944699D01*
X45005934Y-69944699D01*
X44800000Y-69924417D01*
X44594067Y-69944699D01*
X44396043Y-70004769D01*
X44285898Y-70063643D01*
X44213550Y-70102315D01*
X44213548Y-70102316D01*
X44213547Y-70102317D01*
X44053589Y-70233589D01*
X43922317Y-70393547D01*
X43824769Y-70576043D01*
X43764699Y-70774067D01*
X43744417Y-70980000D01*
X43764699Y-71185932D01*
X43781966Y-71242853D01*
X43824768Y-71383954D01*
X43922315Y-71566450D01*
X43922317Y-71566452D01*
X44053589Y-71726410D01*
X44150209Y-71805702D01*
X44213550Y-71857685D01*
X44396046Y-71955232D01*
X44594066Y-72015300D01*
X44594065Y-72015300D01*
X44612529Y-72017118D01*
X44800000Y-72035583D01*
X45005934Y-72015300D01*
X45203954Y-71955232D01*
X45386450Y-71857685D01*
X45546410Y-71726410D01*
X45677685Y-71566450D01*
X45775232Y-71383954D01*
X45775234Y-71383945D01*
X45776021Y-71382049D01*
X45776701Y-71381203D01*
X45778104Y-71378581D01*
X45778601Y-71378846D01*
X45819862Y-71327645D01*
X45886156Y-71305579D01*
X45890583Y-71305500D01*
X48034811Y-71305500D01*
X48101850Y-71325185D01*
X48147605Y-71377989D01*
X48157549Y-71447147D01*
X48128524Y-71510703D01*
X48122492Y-71517181D01*
X46739537Y-72900135D01*
X46739533Y-72900141D01*
X46696681Y-72974361D01*
X46696682Y-72974362D01*
X46674500Y-73057147D01*
X46674500Y-81293810D01*
X46654815Y-81360849D01*
X46638181Y-81381491D01*
X45340994Y-82678677D01*
X45279671Y-82712162D01*
X45209979Y-82707178D01*
X45205869Y-82705561D01*
X45203958Y-82704769D01*
X45104944Y-82674734D01*
X45005934Y-82644700D01*
X45005932Y-82644699D01*
X45005934Y-82644699D01*
X44800000Y-82624417D01*
X44594067Y-82644699D01*
X44396043Y-82704769D01*
X44323743Y-82743415D01*
X44213550Y-82802315D01*
X44213548Y-82802316D01*
X44213547Y-82802317D01*
X44053589Y-82933589D01*
X43922317Y-83093547D01*
X43922315Y-83093550D01*
X43883643Y-83165898D01*
X43824769Y-83276043D01*
X43764699Y-83474067D01*
X43744417Y-83680000D01*
X43764699Y-83885932D01*
X43764700Y-83885934D01*
X43824768Y-84083954D01*
X43922315Y-84266450D01*
X43922317Y-84266452D01*
X44053589Y-84426410D01*
X44150209Y-84505702D01*
X44213550Y-84557685D01*
X44396046Y-84655232D01*
X44594066Y-84715300D01*
X44594065Y-84715300D01*
X44612529Y-84717118D01*
X44800000Y-84735583D01*
X45005934Y-84715300D01*
X45203954Y-84655232D01*
X45386450Y-84557685D01*
X45546410Y-84426410D01*
X45677685Y-84266450D01*
X45775232Y-84083954D01*
X45835300Y-83885934D01*
X45855583Y-83680000D01*
X45835300Y-83474066D01*
X45775232Y-83276046D01*
X45775230Y-83276043D01*
X45775230Y-83276041D01*
X45774444Y-83274144D01*
X45774328Y-83273068D01*
X45773463Y-83270216D01*
X45774003Y-83270051D01*
X45766971Y-83204675D01*
X45798242Y-83142194D01*
X45801294Y-83139031D01*
X47189652Y-81750672D01*
X47189657Y-81750669D01*
X47199860Y-81740465D01*
X47199862Y-81740465D01*
X47260465Y-81679862D01*
X47260465Y-81679861D01*
X47262819Y-81677508D01*
X47324142Y-81644023D01*
X47393834Y-81649007D01*
X47449767Y-81690879D01*
X47474184Y-81756343D01*
X47474500Y-81765189D01*
X47474500Y-85573810D01*
X47454815Y-85640849D01*
X47438181Y-85661491D01*
X45340994Y-87758677D01*
X45279671Y-87792162D01*
X45209979Y-87787178D01*
X45205869Y-87785561D01*
X45203958Y-87784769D01*
X45104944Y-87754734D01*
X45005934Y-87724700D01*
X45005932Y-87724699D01*
X45005934Y-87724699D01*
X44800000Y-87704417D01*
X44594067Y-87724699D01*
X44396043Y-87784769D01*
X44323743Y-87823415D01*
X44213550Y-87882315D01*
X44213548Y-87882316D01*
X44213547Y-87882317D01*
X44053589Y-88013589D01*
X43922317Y-88173547D01*
X43824769Y-88356043D01*
X43764699Y-88554067D01*
X43744417Y-88760000D01*
X43764699Y-88965932D01*
X43783613Y-89028282D01*
X43824768Y-89163954D01*
X43922315Y-89346450D01*
X43922317Y-89346452D01*
X44053589Y-89506410D01*
X44150209Y-89585702D01*
X44213550Y-89637685D01*
X44396046Y-89735232D01*
X44594066Y-89795300D01*
X44594065Y-89795300D01*
X44612529Y-89797118D01*
X44800000Y-89815583D01*
X45005934Y-89795300D01*
X45203954Y-89735232D01*
X45386450Y-89637685D01*
X45546410Y-89506410D01*
X45677685Y-89346450D01*
X45775232Y-89163954D01*
X45835300Y-88965934D01*
X45855583Y-88760000D01*
X45835300Y-88554066D01*
X45775232Y-88356046D01*
X45775230Y-88356043D01*
X45775230Y-88356041D01*
X45774444Y-88354144D01*
X45774328Y-88353068D01*
X45773463Y-88350216D01*
X45774003Y-88350051D01*
X45766971Y-88284675D01*
X45798242Y-88222194D01*
X45801294Y-88219031D01*
X47200324Y-86820000D01*
X56644417Y-86820000D01*
X56664699Y-87025932D01*
X56686464Y-87097682D01*
X56724768Y-87223954D01*
X56822315Y-87406450D01*
X56822317Y-87406452D01*
X56953589Y-87566410D01*
X57050209Y-87645702D01*
X57113550Y-87697685D01*
X57296046Y-87795232D01*
X57494066Y-87855300D01*
X57494065Y-87855300D01*
X57512529Y-87857118D01*
X57700000Y-87875583D01*
X57905934Y-87855300D01*
X58103954Y-87795232D01*
X58286450Y-87697685D01*
X58446410Y-87566410D01*
X58577685Y-87406450D01*
X58675232Y-87223954D01*
X58735300Y-87025934D01*
X58755583Y-86820000D01*
X58735300Y-86614066D01*
X58675232Y-86416046D01*
X58577685Y-86233550D01*
X58489410Y-86125986D01*
X58446410Y-86073589D01*
X58326841Y-85975463D01*
X58286450Y-85942315D01*
X58103954Y-85844768D01*
X57905934Y-85784700D01*
X57905932Y-85784699D01*
X57905934Y-85784699D01*
X57700000Y-85764417D01*
X57494067Y-85784699D01*
X57296043Y-85844769D01*
X57185898Y-85903643D01*
X57113550Y-85942315D01*
X57113548Y-85942316D01*
X57113547Y-85942317D01*
X56953589Y-86073589D01*
X56822317Y-86233547D01*
X56724769Y-86416043D01*
X56664699Y-86614067D01*
X56644417Y-86820000D01*
X47200324Y-86820000D01*
X47989652Y-86030672D01*
X47989657Y-86030669D01*
X47999860Y-86020465D01*
X47999862Y-86020465D01*
X48060465Y-85959862D01*
X48098307Y-85894318D01*
X48103318Y-85885639D01*
X48125501Y-85802853D01*
X48125501Y-85717147D01*
X48125501Y-85709552D01*
X48125500Y-85709534D01*
X48125500Y-84280000D01*
X56644417Y-84280000D01*
X56664699Y-84485932D01*
X56677546Y-84528282D01*
X56724768Y-84683954D01*
X56822315Y-84866450D01*
X56856969Y-84908677D01*
X56953589Y-85026410D01*
X57050209Y-85105702D01*
X57113550Y-85157685D01*
X57296046Y-85255232D01*
X57494066Y-85315300D01*
X57494065Y-85315300D01*
X57512529Y-85317118D01*
X57700000Y-85335583D01*
X57905934Y-85315300D01*
X58103954Y-85255232D01*
X58286450Y-85157685D01*
X58446410Y-85026410D01*
X58577685Y-84866450D01*
X58675232Y-84683954D01*
X58735300Y-84485934D01*
X58755583Y-84280000D01*
X58735300Y-84074066D01*
X58675232Y-83876046D01*
X58577685Y-83693550D01*
X58525702Y-83630209D01*
X58446410Y-83533589D01*
X58286452Y-83402317D01*
X58286453Y-83402317D01*
X58286450Y-83402315D01*
X58103954Y-83304768D01*
X57905934Y-83244700D01*
X57905932Y-83244699D01*
X57905934Y-83244699D01*
X57700000Y-83224417D01*
X57494067Y-83244699D01*
X57296043Y-83304769D01*
X57185898Y-83363643D01*
X57113550Y-83402315D01*
X57113548Y-83402316D01*
X57113547Y-83402317D01*
X56953589Y-83533589D01*
X56839576Y-83672517D01*
X56822315Y-83693550D01*
X56789568Y-83754815D01*
X56724769Y-83876043D01*
X56664699Y-84074067D01*
X56644417Y-84280000D01*
X48125500Y-84280000D01*
X48125500Y-81740000D01*
X56644417Y-81740000D01*
X56664699Y-81945932D01*
X56681962Y-82002841D01*
X56724768Y-82143954D01*
X56822315Y-82326450D01*
X56856969Y-82368677D01*
X56953589Y-82486410D01*
X57050209Y-82565702D01*
X57113550Y-82617685D01*
X57296046Y-82715232D01*
X57494066Y-82775300D01*
X57494065Y-82775300D01*
X57512529Y-82777118D01*
X57700000Y-82795583D01*
X57905934Y-82775300D01*
X58103954Y-82715232D01*
X58286450Y-82617685D01*
X58446410Y-82486410D01*
X58577685Y-82326450D01*
X58675232Y-82143954D01*
X58735300Y-81945934D01*
X58755583Y-81740000D01*
X58735300Y-81534066D01*
X58675232Y-81336046D01*
X58577685Y-81153550D01*
X58495090Y-81052907D01*
X58446410Y-80993589D01*
X58327670Y-80896143D01*
X58286450Y-80862315D01*
X58103954Y-80764768D01*
X57905934Y-80704700D01*
X57905932Y-80704699D01*
X57905934Y-80704699D01*
X57700000Y-80684417D01*
X57494067Y-80704699D01*
X57296043Y-80764769D01*
X57230132Y-80800000D01*
X57113550Y-80862315D01*
X57113548Y-80862316D01*
X57113547Y-80862317D01*
X56953589Y-80993589D01*
X56833435Y-81140000D01*
X56822315Y-81153550D01*
X56798029Y-81198986D01*
X56724769Y-81336043D01*
X56664699Y-81534067D01*
X56644417Y-81740000D01*
X48125500Y-81740000D01*
X48125500Y-79200000D01*
X56644417Y-79200000D01*
X56664699Y-79405932D01*
X56664700Y-79405934D01*
X56724768Y-79603954D01*
X56822315Y-79786450D01*
X56822317Y-79786452D01*
X56953589Y-79946410D01*
X57050209Y-80025702D01*
X57113550Y-80077685D01*
X57296046Y-80175232D01*
X57494066Y-80235300D01*
X57494065Y-80235300D01*
X57512529Y-80237118D01*
X57700000Y-80255583D01*
X57905934Y-80235300D01*
X58103954Y-80175232D01*
X58286450Y-80077685D01*
X58446410Y-79946410D01*
X58577685Y-79786450D01*
X58675232Y-79603954D01*
X58735300Y-79405934D01*
X58755583Y-79200000D01*
X58735300Y-78994066D01*
X58675232Y-78796046D01*
X58577685Y-78613550D01*
X58525702Y-78550209D01*
X58446410Y-78453589D01*
X58286452Y-78322317D01*
X58286453Y-78322317D01*
X58286450Y-78322315D01*
X58103954Y-78224768D01*
X57905934Y-78164700D01*
X57905932Y-78164699D01*
X57905934Y-78164699D01*
X57700000Y-78144417D01*
X57494067Y-78164699D01*
X57296043Y-78224769D01*
X57185898Y-78283643D01*
X57113550Y-78322315D01*
X57113548Y-78322316D01*
X57113547Y-78322317D01*
X56953589Y-78453589D01*
X56822317Y-78613547D01*
X56724769Y-78796043D01*
X56664699Y-78994067D01*
X56644417Y-79200000D01*
X48125500Y-79200000D01*
X48125500Y-75790247D01*
X56649500Y-75790247D01*
X56649500Y-77529752D01*
X56661131Y-77588229D01*
X56661132Y-77588230D01*
X56705447Y-77654552D01*
X56771769Y-77698867D01*
X56771770Y-77698868D01*
X56830247Y-77710499D01*
X56830250Y-77710500D01*
X56830252Y-77710500D01*
X58569750Y-77710500D01*
X58569751Y-77710499D01*
X58584568Y-77707552D01*
X58628229Y-77698868D01*
X58628229Y-77698867D01*
X58628231Y-77698867D01*
X58694552Y-77654552D01*
X58738867Y-77588231D01*
X58738867Y-77588229D01*
X58738868Y-77588229D01*
X58750499Y-77529752D01*
X58750500Y-77529750D01*
X58750500Y-75790249D01*
X58750499Y-75790247D01*
X58738868Y-75731770D01*
X58738867Y-75731769D01*
X58694552Y-75665447D01*
X58628230Y-75621132D01*
X58628229Y-75621131D01*
X58569752Y-75609500D01*
X58569748Y-75609500D01*
X56830252Y-75609500D01*
X56830247Y-75609500D01*
X56771770Y-75621131D01*
X56771769Y-75621132D01*
X56705447Y-75665447D01*
X56661132Y-75731769D01*
X56661131Y-75731770D01*
X56649500Y-75790247D01*
X48125500Y-75790247D01*
X48125500Y-73486188D01*
X48145185Y-73419149D01*
X48161819Y-73398507D01*
X48898507Y-72661819D01*
X48959830Y-72628334D01*
X48986188Y-72625500D01*
X59263201Y-72625500D01*
X59330240Y-72645185D01*
X59350882Y-72661819D01*
X67462093Y-80773029D01*
X67495578Y-80834352D01*
X67497351Y-80876894D01*
X67494817Y-80896143D01*
X67494817Y-80896146D01*
X67515454Y-81052905D01*
X67515455Y-81052907D01*
X67577645Y-81203047D01*
X67585114Y-81272517D01*
X67553839Y-81334996D01*
X67493750Y-81370648D01*
X67463084Y-81374500D01*
X63457147Y-81374500D01*
X63374362Y-81396682D01*
X63374359Y-81396683D01*
X63326117Y-81424536D01*
X63300141Y-81439533D01*
X63300135Y-81439537D01*
X60414537Y-84325135D01*
X60414533Y-84325141D01*
X60371681Y-84399362D01*
X60371680Y-84399363D01*
X60360918Y-84439533D01*
X60349500Y-84482145D01*
X60349500Y-84482147D01*
X60349500Y-89832147D01*
X60349500Y-89917853D01*
X60360591Y-89959246D01*
X60371682Y-90000640D01*
X60393108Y-90037750D01*
X60414535Y-90074862D01*
X60925138Y-90585465D01*
X60999361Y-90628318D01*
X61082147Y-90650500D01*
X61950884Y-90650500D01*
X62017923Y-90670185D01*
X62049257Y-90699010D01*
X62071718Y-90728282D01*
X62197159Y-90824536D01*
X62343238Y-90885044D01*
X62421619Y-90895363D01*
X62499999Y-90905682D01*
X62500000Y-90905682D01*
X62500001Y-90905682D01*
X62552254Y-90898802D01*
X62656762Y-90885044D01*
X62802841Y-90824536D01*
X62928282Y-90728282D01*
X63024536Y-90602841D01*
X63085044Y-90456762D01*
X63105682Y-90300000D01*
X63085044Y-90143238D01*
X63024536Y-89997159D01*
X62928282Y-89871718D01*
X62802841Y-89775464D01*
X62656762Y-89714956D01*
X62656760Y-89714955D01*
X62500001Y-89694318D01*
X62499999Y-89694318D01*
X62343239Y-89714955D01*
X62343237Y-89714956D01*
X62197158Y-89775464D01*
X62179910Y-89788699D01*
X62114740Y-89813892D01*
X62046296Y-89799853D01*
X61996307Y-89751038D01*
X61980645Y-89682946D01*
X61984652Y-89658222D01*
X61985040Y-89656771D01*
X61985044Y-89656762D01*
X62005682Y-89500000D01*
X61985044Y-89343238D01*
X61924536Y-89197159D01*
X61828282Y-89071718D01*
X61828280Y-89071716D01*
X61828279Y-89071715D01*
X61774012Y-89030074D01*
X61732810Y-88973646D01*
X61725500Y-88931699D01*
X61725500Y-86499998D01*
X62894318Y-86499998D01*
X62894318Y-86500001D01*
X62914955Y-86656760D01*
X62914956Y-86656762D01*
X62975464Y-86802841D01*
X63071718Y-86928282D01*
X63197159Y-87024536D01*
X63343238Y-87085044D01*
X63421619Y-87095363D01*
X63499999Y-87105682D01*
X63500000Y-87105682D01*
X63500001Y-87105682D01*
X63552254Y-87098802D01*
X63656762Y-87085044D01*
X63802841Y-87024536D01*
X63928282Y-86928282D01*
X63969923Y-86874013D01*
X64026351Y-86832811D01*
X64068299Y-86825500D01*
X66213811Y-86825500D01*
X66280850Y-86845185D01*
X66301492Y-86861819D01*
X66938181Y-87498508D01*
X66971666Y-87559831D01*
X66974500Y-87586189D01*
X66974500Y-88031699D01*
X66954815Y-88098738D01*
X66925988Y-88130074D01*
X66871720Y-88171715D01*
X66775463Y-88297160D01*
X66714956Y-88443237D01*
X66714955Y-88443239D01*
X66694318Y-88599998D01*
X66694318Y-88600001D01*
X66714955Y-88756760D01*
X66714956Y-88756762D01*
X66775464Y-88902841D01*
X66871718Y-89028282D01*
X66997159Y-89124536D01*
X67143238Y-89185044D01*
X67214008Y-89194361D01*
X67299999Y-89205682D01*
X67300000Y-89205682D01*
X67300001Y-89205682D01*
X67364739Y-89197159D01*
X67456762Y-89185044D01*
X67602841Y-89124536D01*
X67728282Y-89028282D01*
X67824536Y-88902841D01*
X67885044Y-88756762D01*
X67905682Y-88600000D01*
X67885044Y-88443238D01*
X67824536Y-88297159D01*
X67728282Y-88171718D01*
X67728280Y-88171716D01*
X67728279Y-88171715D01*
X67674012Y-88130074D01*
X67632810Y-88073646D01*
X67625500Y-88031699D01*
X67625500Y-87357149D01*
X67625500Y-87357147D01*
X67603318Y-87274362D01*
X67603318Y-87274361D01*
X67560465Y-87200138D01*
X66599862Y-86239535D01*
X66562750Y-86218108D01*
X66525640Y-86196682D01*
X66484246Y-86185591D01*
X66442853Y-86174500D01*
X66442852Y-86174500D01*
X64068299Y-86174500D01*
X64001260Y-86154815D01*
X63969923Y-86125986D01*
X63928283Y-86071719D01*
X63874796Y-86030677D01*
X63802841Y-85975464D01*
X63765179Y-85959864D01*
X63656762Y-85914956D01*
X63656760Y-85914955D01*
X63500001Y-85894318D01*
X63499999Y-85894318D01*
X63343239Y-85914955D01*
X63343237Y-85914956D01*
X63197160Y-85975463D01*
X63071718Y-86071718D01*
X62975463Y-86197160D01*
X62914956Y-86343237D01*
X62914955Y-86343239D01*
X62894318Y-86499998D01*
X61725500Y-86499998D01*
X61725500Y-84886188D01*
X61745185Y-84819149D01*
X61761819Y-84798507D01*
X63698507Y-82861819D01*
X63759830Y-82828334D01*
X63786188Y-82825500D01*
X66560988Y-82825500D01*
X66628027Y-82845185D01*
X66673782Y-82897989D01*
X66683726Y-82967147D01*
X66675549Y-82996952D01*
X66614957Y-83143234D01*
X66614955Y-83143239D01*
X66594318Y-83299998D01*
X66594318Y-83300001D01*
X66614955Y-83456760D01*
X66614957Y-83456765D01*
X66675549Y-83603048D01*
X66683018Y-83672517D01*
X66651743Y-83734996D01*
X66591654Y-83770648D01*
X66560988Y-83774500D01*
X64368299Y-83774500D01*
X64301260Y-83754815D01*
X64269923Y-83725986D01*
X64228283Y-83671719D01*
X64138519Y-83602841D01*
X64102841Y-83575464D01*
X64001748Y-83533590D01*
X63956762Y-83514956D01*
X63956760Y-83514955D01*
X63800001Y-83494318D01*
X63799999Y-83494318D01*
X63643239Y-83514955D01*
X63643237Y-83514956D01*
X63497160Y-83575463D01*
X63371718Y-83671718D01*
X63275463Y-83797160D01*
X63214956Y-83943237D01*
X63214955Y-83943239D01*
X63194318Y-84099998D01*
X63194318Y-84100001D01*
X63214955Y-84256760D01*
X63214956Y-84256762D01*
X63274022Y-84399361D01*
X63275464Y-84402841D01*
X63371718Y-84528282D01*
X63497159Y-84624536D01*
X63643238Y-84685044D01*
X63721619Y-84695363D01*
X63799999Y-84705682D01*
X63800000Y-84705682D01*
X63800001Y-84705682D01*
X63852254Y-84698802D01*
X63956762Y-84685044D01*
X64102841Y-84624536D01*
X64228282Y-84528282D01*
X64269923Y-84474013D01*
X64326351Y-84432811D01*
X64368299Y-84425500D01*
X68013811Y-84425500D01*
X68080850Y-84445185D01*
X68101492Y-84461819D01*
X73058181Y-89418507D01*
X73091666Y-89479830D01*
X73094500Y-89506188D01*
X73094500Y-96309417D01*
X73074815Y-96376456D01*
X73022011Y-96422211D01*
X73017951Y-96423979D01*
X73016045Y-96424768D01*
X72928494Y-96471566D01*
X72833550Y-96522315D01*
X72833548Y-96522316D01*
X72833547Y-96522317D01*
X72673589Y-96653589D01*
X72542317Y-96813547D01*
X72444769Y-96996043D01*
X72384699Y-97194067D01*
X72364417Y-97400000D01*
X72384699Y-97605932D01*
X72398896Y-97652732D01*
X72444768Y-97803954D01*
X72542315Y-97986450D01*
X72542317Y-97986452D01*
X72673589Y-98146410D01*
X72769833Y-98225394D01*
X72833550Y-98277685D01*
X73016046Y-98375232D01*
X73202657Y-98431839D01*
X73261096Y-98470137D01*
X73289552Y-98533949D01*
X73278992Y-98603016D01*
X73232768Y-98655409D01*
X73166662Y-98674500D01*
X57886188Y-98674500D01*
X57819149Y-98654815D01*
X57798507Y-98638181D01*
X57385720Y-98225394D01*
X56949008Y-97788682D01*
X56915525Y-97727361D01*
X56920509Y-97657669D01*
X56962381Y-97601736D01*
X56978234Y-97591647D01*
X57046450Y-97555185D01*
X57206410Y-97423910D01*
X57337685Y-97263950D01*
X57435232Y-97081454D01*
X57495300Y-96883434D01*
X57515583Y-96677500D01*
X60484417Y-96677500D01*
X60504699Y-96883432D01*
X60504700Y-96883434D01*
X60564768Y-97081454D01*
X60662315Y-97263950D01*
X60662317Y-97263952D01*
X60793589Y-97423910D01*
X60890209Y-97503202D01*
X60953550Y-97555185D01*
X61136046Y-97652732D01*
X61334066Y-97712800D01*
X61334065Y-97712800D01*
X61352529Y-97714618D01*
X61540000Y-97733083D01*
X61745934Y-97712800D01*
X61943954Y-97652732D01*
X62126450Y-97555185D01*
X62286410Y-97423910D01*
X62417685Y-97263950D01*
X62515232Y-97081454D01*
X62575300Y-96883434D01*
X62595583Y-96677500D01*
X63024417Y-96677500D01*
X63044699Y-96883432D01*
X63044700Y-96883434D01*
X63104768Y-97081454D01*
X63202315Y-97263950D01*
X63202317Y-97263952D01*
X63333589Y-97423910D01*
X63430209Y-97503202D01*
X63493550Y-97555185D01*
X63676046Y-97652732D01*
X63874066Y-97712800D01*
X63874065Y-97712800D01*
X63892529Y-97714618D01*
X64080000Y-97733083D01*
X64285934Y-97712800D01*
X64483954Y-97652732D01*
X64666450Y-97555185D01*
X64826410Y-97423910D01*
X64957685Y-97263950D01*
X65055232Y-97081454D01*
X65115300Y-96883434D01*
X65135583Y-96677500D01*
X65115300Y-96471566D01*
X65055232Y-96273546D01*
X64957685Y-96091050D01*
X64905702Y-96027709D01*
X64826410Y-95931089D01*
X64676121Y-95807752D01*
X64666450Y-95799815D01*
X64483954Y-95702268D01*
X64285934Y-95642200D01*
X64285932Y-95642199D01*
X64285934Y-95642199D01*
X64080000Y-95621917D01*
X63874067Y-95642199D01*
X63739736Y-95682948D01*
X63684476Y-95699711D01*
X63676043Y-95702269D01*
X63588114Y-95749269D01*
X63493550Y-95799815D01*
X63493548Y-95799816D01*
X63493547Y-95799817D01*
X63333589Y-95931089D01*
X63202317Y-96091047D01*
X63104769Y-96273543D01*
X63044699Y-96471567D01*
X63024417Y-96677500D01*
X62595583Y-96677500D01*
X62575300Y-96471566D01*
X62515232Y-96273546D01*
X62417685Y-96091050D01*
X62365702Y-96027709D01*
X62286410Y-95931089D01*
X62136121Y-95807752D01*
X62126450Y-95799815D01*
X61943954Y-95702268D01*
X61745934Y-95642200D01*
X61745932Y-95642199D01*
X61745934Y-95642199D01*
X61540000Y-95621917D01*
X61334067Y-95642199D01*
X61199736Y-95682948D01*
X61144476Y-95699711D01*
X61136043Y-95702269D01*
X61048114Y-95749269D01*
X60953550Y-95799815D01*
X60953548Y-95799816D01*
X60953547Y-95799817D01*
X60793589Y-95931089D01*
X60662317Y-96091047D01*
X60564769Y-96273543D01*
X60504699Y-96471567D01*
X60484417Y-96677500D01*
X57515583Y-96677500D01*
X57495300Y-96471566D01*
X57435232Y-96273546D01*
X57337685Y-96091050D01*
X57285702Y-96027709D01*
X57206410Y-95931089D01*
X57056121Y-95807752D01*
X57046450Y-95799815D01*
X56863954Y-95702268D01*
X56862049Y-95701479D01*
X56861203Y-95700798D01*
X56858581Y-95699396D01*
X56858846Y-95698898D01*
X56807645Y-95657638D01*
X56785579Y-95591344D01*
X56785500Y-95586917D01*
X56785500Y-95117149D01*
X56785500Y-95117147D01*
X56763318Y-95034362D01*
X56763318Y-95034361D01*
X56720465Y-94960138D01*
X55339862Y-93579535D01*
X55302750Y-93558108D01*
X55265640Y-93536682D01*
X55224246Y-93525591D01*
X55182853Y-93514500D01*
X55182852Y-93514500D01*
X45890583Y-93514500D01*
X45823544Y-93494815D01*
X45777789Y-93442011D01*
X45776021Y-93437951D01*
X45775233Y-93436051D01*
X45775232Y-93436046D01*
X45677685Y-93253550D01*
X45625702Y-93190209D01*
X45546410Y-93093589D01*
X45386452Y-92962317D01*
X45386453Y-92962317D01*
X45386450Y-92962315D01*
X45203954Y-92864768D01*
X45005934Y-92804700D01*
X45005932Y-92804699D01*
X45005934Y-92804699D01*
X44800000Y-92784417D01*
X44594067Y-92804699D01*
X44396043Y-92864769D01*
X44285898Y-92923643D01*
X44213550Y-92962315D01*
X44213548Y-92962316D01*
X44213547Y-92962317D01*
X44053589Y-93093589D01*
X43922317Y-93253547D01*
X43824769Y-93436043D01*
X43764699Y-93634067D01*
X43744417Y-93840000D01*
X43764699Y-94045932D01*
X43764700Y-94045934D01*
X43824768Y-94243954D01*
X43922315Y-94426450D01*
X43922317Y-94426452D01*
X44053589Y-94586410D01*
X44150209Y-94665702D01*
X44213550Y-94717685D01*
X44396046Y-94815232D01*
X44594066Y-94875300D01*
X44594065Y-94875300D01*
X44612529Y-94877118D01*
X44800000Y-94895583D01*
X45005934Y-94875300D01*
X45203954Y-94815232D01*
X45386450Y-94717685D01*
X45546410Y-94586410D01*
X45677685Y-94426450D01*
X45775232Y-94243954D01*
X45775234Y-94243945D01*
X45776021Y-94242049D01*
X45776701Y-94241203D01*
X45778104Y-94238581D01*
X45778601Y-94238846D01*
X45819862Y-94187645D01*
X45886156Y-94165579D01*
X45890583Y-94165500D01*
X54953811Y-94165500D01*
X55020850Y-94185185D01*
X55041492Y-94201819D01*
X56098181Y-95258508D01*
X56131666Y-95319831D01*
X56134500Y-95346189D01*
X56134500Y-95586917D01*
X56114815Y-95653956D01*
X56062011Y-95699711D01*
X56057951Y-95701479D01*
X56056045Y-95702268D01*
X55968114Y-95749269D01*
X55873550Y-95799815D01*
X55873548Y-95799816D01*
X55873547Y-95799817D01*
X55713589Y-95931089D01*
X55582317Y-96091047D01*
X55484769Y-96273543D01*
X55424699Y-96471567D01*
X55404417Y-96677500D01*
X55424699Y-96883432D01*
X55424700Y-96883434D01*
X55484768Y-97081454D01*
X55582315Y-97263950D01*
X55582317Y-97263952D01*
X55713589Y-97423910D01*
X55810209Y-97503202D01*
X55873550Y-97555185D01*
X56056046Y-97652732D01*
X56056051Y-97652733D01*
X56057951Y-97653521D01*
X56058796Y-97654201D01*
X56061419Y-97655604D01*
X56061153Y-97656101D01*
X56112355Y-97697362D01*
X56134421Y-97763656D01*
X56134500Y-97768083D01*
X56134500Y-97802852D01*
X56156682Y-97885640D01*
X56178108Y-97922750D01*
X56199535Y-97959862D01*
X56199536Y-97959863D01*
X56199537Y-97959864D01*
X57435194Y-99195520D01*
X57435204Y-99195531D01*
X57439534Y-99199861D01*
X57439535Y-99199862D01*
X57500138Y-99260465D01*
X57537250Y-99281891D01*
X57537252Y-99281893D01*
X57565428Y-99298160D01*
X57574361Y-99303318D01*
X57657147Y-99325500D01*
X57657149Y-99325500D01*
X77642851Y-99325500D01*
X77642853Y-99325500D01*
X77725639Y-99303318D01*
X77799862Y-99260465D01*
X78584815Y-98475510D01*
X78646136Y-98442027D01*
X78660334Y-98439790D01*
X78705934Y-98435300D01*
X78903954Y-98375232D01*
X79086450Y-98277685D01*
X79246410Y-98146410D01*
X79377685Y-97986450D01*
X79475232Y-97803954D01*
X79535300Y-97605934D01*
X79555583Y-97400000D01*
X79535300Y-97194066D01*
X79475232Y-96996046D01*
X79377685Y-96813550D01*
X79325702Y-96750209D01*
X79246410Y-96653589D01*
X79086452Y-96522317D01*
X79086453Y-96522317D01*
X79086450Y-96522315D01*
X78903954Y-96424768D01*
X78705934Y-96364700D01*
X78705932Y-96364699D01*
X78705934Y-96364699D01*
X78500000Y-96344417D01*
X78294067Y-96364699D01*
X78118692Y-96417898D01*
X78104476Y-96422211D01*
X78096043Y-96424769D01*
X78008494Y-96471566D01*
X77913550Y-96522315D01*
X77913548Y-96522316D01*
X77913547Y-96522317D01*
X77753589Y-96653589D01*
X77622317Y-96813547D01*
X77524769Y-96996043D01*
X77464699Y-97194067D01*
X77444417Y-97400000D01*
X77464699Y-97605932D01*
X77478896Y-97652732D01*
X77524768Y-97803954D01*
X77622315Y-97986450D01*
X77622317Y-97986452D01*
X77753589Y-98146410D01*
X77779470Y-98167649D01*
X77818805Y-98225394D01*
X77820676Y-98295239D01*
X77788487Y-98351184D01*
X77501490Y-98638182D01*
X77440170Y-98671666D01*
X77413811Y-98674500D01*
X76213338Y-98674500D01*
X76146299Y-98654815D01*
X76100544Y-98602011D01*
X76090600Y-98532853D01*
X76119625Y-98469297D01*
X76177342Y-98431839D01*
X76363954Y-98375232D01*
X76546450Y-98277685D01*
X76706410Y-98146410D01*
X76837685Y-97986450D01*
X76935232Y-97803954D01*
X76995300Y-97605934D01*
X77015583Y-97400000D01*
X76995300Y-97194066D01*
X76935232Y-96996046D01*
X76837685Y-96813550D01*
X76785702Y-96750209D01*
X76706410Y-96653589D01*
X76546452Y-96522317D01*
X76546453Y-96522317D01*
X76546450Y-96522315D01*
X76363954Y-96424768D01*
X76362049Y-96423979D01*
X76361203Y-96423298D01*
X76358581Y-96421896D01*
X76358846Y-96421398D01*
X76307645Y-96380138D01*
X76285579Y-96313844D01*
X76285500Y-96309417D01*
X76285500Y-87817149D01*
X76285500Y-87817147D01*
X76263318Y-87734362D01*
X76263318Y-87734361D01*
X76220465Y-87660138D01*
X71599862Y-83039535D01*
X71597508Y-83037181D01*
X71564023Y-82975858D01*
X71569007Y-82906166D01*
X71610879Y-82850233D01*
X71676343Y-82825816D01*
X71685189Y-82825500D01*
X79131701Y-82825500D01*
X79198740Y-82845185D01*
X79230076Y-82874013D01*
X79271718Y-82928282D01*
X79397159Y-83024536D01*
X79543238Y-83085044D01*
X79607825Y-83093547D01*
X79699999Y-83105682D01*
X79700000Y-83105682D01*
X79700001Y-83105682D01*
X79752254Y-83098802D01*
X79856762Y-83085044D01*
X80002841Y-83024536D01*
X80128282Y-82928282D01*
X80224536Y-82802841D01*
X80285044Y-82656762D01*
X80305682Y-82500000D01*
X80285044Y-82343238D01*
X80224536Y-82197159D01*
X80128282Y-82071718D01*
X80002841Y-81975464D01*
X79931549Y-81945934D01*
X79856762Y-81914956D01*
X79856760Y-81914955D01*
X79700001Y-81894318D01*
X79699999Y-81894318D01*
X79543239Y-81914955D01*
X79543237Y-81914956D01*
X79397160Y-81975463D01*
X79271716Y-82071719D01*
X79230077Y-82125986D01*
X79173649Y-82167189D01*
X79131701Y-82174500D01*
X75139012Y-82174500D01*
X75071973Y-82154815D01*
X75026218Y-82102011D01*
X75016274Y-82032853D01*
X75024451Y-82003048D01*
X75060939Y-81914956D01*
X75085044Y-81856762D01*
X75105682Y-81700000D01*
X75085044Y-81543238D01*
X75024536Y-81397159D01*
X74928282Y-81271718D01*
X74802841Y-81175464D01*
X74717223Y-81140000D01*
X74656762Y-81114956D01*
X74656760Y-81114955D01*
X74500001Y-81094318D01*
X74499999Y-81094318D01*
X74343239Y-81114955D01*
X74343237Y-81114956D01*
X74197160Y-81175463D01*
X74071716Y-81271719D01*
X74030077Y-81325986D01*
X73973649Y-81367189D01*
X73931701Y-81374500D01*
X73867532Y-81374500D01*
X73800493Y-81354815D01*
X73754738Y-81302011D01*
X73744794Y-81232853D01*
X73769156Y-81175014D01*
X73815240Y-81114956D01*
X73824536Y-81102841D01*
X73885044Y-80956762D01*
X73898802Y-80852254D01*
X73905682Y-80800001D01*
X73905682Y-80799998D01*
X73885044Y-80643239D01*
X73885044Y-80643238D01*
X73824536Y-80497159D01*
X73728282Y-80371718D01*
X73602841Y-80275464D01*
X73571101Y-80262317D01*
X73456762Y-80214956D01*
X73456760Y-80214955D01*
X73300001Y-80194318D01*
X73299997Y-80194318D01*
X73254541Y-80200302D01*
X73185506Y-80189536D01*
X73150676Y-80165044D01*
X72800169Y-79814537D01*
X72800167Y-79814535D01*
X72780339Y-79803087D01*
X72754425Y-79788125D01*
X72728746Y-79768420D01*
X64399861Y-71439535D01*
X56059862Y-63099535D01*
X56022750Y-63078108D01*
X55985640Y-63056682D01*
X55944246Y-63045591D01*
X55902853Y-63034500D01*
X55902852Y-63034500D01*
X45890583Y-63034500D01*
X45823544Y-63014815D01*
X45777789Y-62962011D01*
X45776021Y-62957951D01*
X45775233Y-62956051D01*
X45775232Y-62956046D01*
X45677685Y-62773550D01*
X45625702Y-62710209D01*
X45546410Y-62613589D01*
X45386452Y-62482317D01*
X45386453Y-62482317D01*
X45386450Y-62482315D01*
X45203954Y-62384768D01*
X45005934Y-62324700D01*
X45005932Y-62324699D01*
X45005934Y-62324699D01*
X44800000Y-62304417D01*
X44594067Y-62324699D01*
X44396043Y-62384769D01*
X44285898Y-62443643D01*
X44213550Y-62482315D01*
X44213548Y-62482316D01*
X44213547Y-62482317D01*
X44053589Y-62613589D01*
X43922317Y-62773547D01*
X43824769Y-62956043D01*
X43764699Y-63154067D01*
X43744417Y-63360000D01*
X42100000Y-63360000D01*
X42100000Y-60820000D01*
X43744417Y-60820000D01*
X43764699Y-61025932D01*
X43764700Y-61025934D01*
X43824768Y-61223954D01*
X43922315Y-61406450D01*
X43922317Y-61406452D01*
X44053589Y-61566410D01*
X44150209Y-61645702D01*
X44213550Y-61697685D01*
X44396046Y-61795232D01*
X44594066Y-61855300D01*
X44594065Y-61855300D01*
X44612529Y-61857118D01*
X44800000Y-61875583D01*
X45005934Y-61855300D01*
X45203954Y-61795232D01*
X45386450Y-61697685D01*
X45546410Y-61566410D01*
X45677685Y-61406450D01*
X45775232Y-61223954D01*
X45835300Y-61025934D01*
X45855583Y-60820000D01*
X45835300Y-60614066D01*
X45775232Y-60416046D01*
X45677685Y-60233550D01*
X45625702Y-60170209D01*
X45546410Y-60073589D01*
X45386452Y-59942317D01*
X45386453Y-59942317D01*
X45386450Y-59942315D01*
X45203954Y-59844768D01*
X45005934Y-59784700D01*
X45005932Y-59784699D01*
X45005934Y-59784699D01*
X44800000Y-59764417D01*
X44594067Y-59784699D01*
X44396043Y-59844769D01*
X44285898Y-59903643D01*
X44213550Y-59942315D01*
X44213548Y-59942316D01*
X44213547Y-59942317D01*
X44053589Y-60073589D01*
X43922317Y-60233547D01*
X43824769Y-60416043D01*
X43764699Y-60614067D01*
X43744417Y-60820000D01*
X42100000Y-60820000D01*
X42100000Y-58280000D01*
X43744417Y-58280000D01*
X43764699Y-58485932D01*
X43764700Y-58485934D01*
X43824768Y-58683954D01*
X43922315Y-58866450D01*
X43922317Y-58866452D01*
X44053589Y-59026410D01*
X44150209Y-59105702D01*
X44213550Y-59157685D01*
X44396046Y-59255232D01*
X44594066Y-59315300D01*
X44594065Y-59315300D01*
X44612529Y-59317118D01*
X44800000Y-59335583D01*
X45005934Y-59315300D01*
X45203954Y-59255232D01*
X45386450Y-59157685D01*
X45546410Y-59026410D01*
X45677685Y-58866450D01*
X45775232Y-58683954D01*
X45835300Y-58485934D01*
X45855583Y-58280000D01*
X45835300Y-58074066D01*
X45775232Y-57876046D01*
X45677685Y-57693550D01*
X45625702Y-57630209D01*
X45546410Y-57533589D01*
X45386452Y-57402317D01*
X45386453Y-57402317D01*
X45386450Y-57402315D01*
X45203954Y-57304768D01*
X45005934Y-57244700D01*
X45005932Y-57244699D01*
X45005934Y-57244699D01*
X44800000Y-57224417D01*
X44594067Y-57244699D01*
X44396043Y-57304769D01*
X44285898Y-57363643D01*
X44213550Y-57402315D01*
X44213548Y-57402316D01*
X44213547Y-57402317D01*
X44053589Y-57533589D01*
X43922317Y-57693547D01*
X43824769Y-57876043D01*
X43764699Y-58074067D01*
X43744417Y-58280000D01*
X42100000Y-58280000D01*
X42100000Y-53400000D01*
X51584417Y-53400000D01*
X51604699Y-53605932D01*
X51604700Y-53605934D01*
X51664768Y-53803954D01*
X51762315Y-53986450D01*
X51762317Y-53986452D01*
X51893589Y-54146410D01*
X51990209Y-54225702D01*
X52053550Y-54277685D01*
X52236046Y-54375232D01*
X52236051Y-54375233D01*
X52237951Y-54376021D01*
X52238796Y-54376701D01*
X52241419Y-54378104D01*
X52241153Y-54378601D01*
X52292355Y-54419862D01*
X52314421Y-54486156D01*
X52314500Y-54490583D01*
X52314500Y-55782852D01*
X52336682Y-55865640D01*
X52358108Y-55902750D01*
X52379535Y-55939862D01*
X52379536Y-55939863D01*
X52379537Y-55939864D01*
X67738181Y-71298507D01*
X67771666Y-71359830D01*
X67774500Y-71386188D01*
X67774500Y-73031699D01*
X67754815Y-73098738D01*
X67725988Y-73130074D01*
X67671720Y-73171715D01*
X67575463Y-73297160D01*
X67514956Y-73443237D01*
X67514955Y-73443239D01*
X67494318Y-73599998D01*
X67494318Y-73600001D01*
X67514955Y-73756760D01*
X67514956Y-73756762D01*
X67575464Y-73902841D01*
X67671718Y-74028282D01*
X67797159Y-74124536D01*
X67943238Y-74185044D01*
X68021619Y-74195363D01*
X68099999Y-74205682D01*
X68100000Y-74205682D01*
X68100001Y-74205682D01*
X68152254Y-74198802D01*
X68256762Y-74185044D01*
X68402841Y-74124536D01*
X68528282Y-74028282D01*
X68624536Y-73902841D01*
X68685044Y-73756762D01*
X68705682Y-73600000D01*
X68685044Y-73443238D01*
X68624536Y-73297159D01*
X68528282Y-73171718D01*
X68528280Y-73171716D01*
X68528279Y-73171715D01*
X68474012Y-73130074D01*
X68432810Y-73073646D01*
X68425500Y-73031699D01*
X68425500Y-71285189D01*
X68445185Y-71218150D01*
X68497989Y-71172395D01*
X68567147Y-71162451D01*
X68630703Y-71191476D01*
X68637181Y-71197508D01*
X73138181Y-75698508D01*
X73171666Y-75759831D01*
X73174500Y-75786189D01*
X73174500Y-77131699D01*
X73154815Y-77198738D01*
X73125988Y-77230074D01*
X73071720Y-77271715D01*
X72975463Y-77397160D01*
X72914956Y-77543237D01*
X72914955Y-77543239D01*
X72894318Y-77699998D01*
X72894318Y-77700001D01*
X72914955Y-77856760D01*
X72914956Y-77856762D01*
X72975464Y-78002841D01*
X73071718Y-78128282D01*
X73197159Y-78224536D01*
X73343238Y-78285044D01*
X73421619Y-78295363D01*
X73499999Y-78305682D01*
X73500000Y-78305682D01*
X73500001Y-78305682D01*
X73552254Y-78298802D01*
X73656762Y-78285044D01*
X73802841Y-78224536D01*
X73928282Y-78128282D01*
X74024536Y-78002841D01*
X74085044Y-77856762D01*
X74105682Y-77700000D01*
X74085044Y-77543238D01*
X74024536Y-77397159D01*
X73928282Y-77271718D01*
X73928280Y-77271716D01*
X73928279Y-77271715D01*
X73874012Y-77230074D01*
X73832810Y-77173646D01*
X73825500Y-77131699D01*
X73825500Y-75557149D01*
X73825500Y-75557147D01*
X73803318Y-75474362D01*
X73802849Y-75473550D01*
X73760469Y-75400144D01*
X73760463Y-75400136D01*
X55541819Y-57181492D01*
X55508334Y-57120169D01*
X55505500Y-57093811D01*
X55505500Y-54490583D01*
X55525185Y-54423544D01*
X55577989Y-54377789D01*
X55582049Y-54376021D01*
X55583945Y-54375234D01*
X55583954Y-54375232D01*
X55766450Y-54277685D01*
X55926410Y-54146410D01*
X56057685Y-53986450D01*
X56155232Y-53803954D01*
X56215300Y-53605934D01*
X56235583Y-53400000D01*
X56664417Y-53400000D01*
X56684699Y-53605932D01*
X56684700Y-53605934D01*
X56744768Y-53803954D01*
X56842315Y-53986450D01*
X56842317Y-53986452D01*
X56973589Y-54146410D01*
X57070209Y-54225702D01*
X57133550Y-54277685D01*
X57316046Y-54375232D01*
X57514066Y-54435300D01*
X57514065Y-54435300D01*
X57532529Y-54437118D01*
X57720000Y-54455583D01*
X57925934Y-54435300D01*
X58123954Y-54375232D01*
X58306450Y-54277685D01*
X58466410Y-54146410D01*
X58597685Y-53986450D01*
X58695232Y-53803954D01*
X58755300Y-53605934D01*
X58755885Y-53599998D01*
X75806818Y-53599998D01*
X75806818Y-53600001D01*
X75827455Y-53756760D01*
X75827456Y-53756762D01*
X75887964Y-53902841D01*
X75984218Y-54028282D01*
X76109659Y-54124536D01*
X76255738Y-54185044D01*
X76334119Y-54195363D01*
X76412499Y-54205682D01*
X76412500Y-54205682D01*
X76412501Y-54205682D01*
X76464754Y-54198802D01*
X76569262Y-54185044D01*
X76715341Y-54124536D01*
X76840782Y-54028282D01*
X76882423Y-53974013D01*
X76938851Y-53932811D01*
X76980799Y-53925500D01*
X78313811Y-53925500D01*
X78380850Y-53945185D01*
X78401492Y-53961819D01*
X79338181Y-54898508D01*
X79371666Y-54959831D01*
X79374500Y-54986189D01*
X79374500Y-64531699D01*
X79354815Y-64598738D01*
X79325988Y-64630074D01*
X79271720Y-64671715D01*
X79175463Y-64797160D01*
X79114956Y-64943237D01*
X79114955Y-64943239D01*
X79094318Y-65099998D01*
X79094318Y-65100001D01*
X79114955Y-65256760D01*
X79114956Y-65256762D01*
X79175464Y-65402841D01*
X79271718Y-65528282D01*
X79397159Y-65624536D01*
X79543238Y-65685044D01*
X79611767Y-65694066D01*
X79699999Y-65705682D01*
X79700000Y-65705682D01*
X79700001Y-65705682D01*
X79752254Y-65698802D01*
X79856762Y-65685044D01*
X80002841Y-65624536D01*
X80128282Y-65528282D01*
X80224536Y-65402841D01*
X80285044Y-65256762D01*
X80305682Y-65100000D01*
X80285044Y-64943238D01*
X80224536Y-64797159D01*
X80128282Y-64671718D01*
X80128280Y-64671716D01*
X80128279Y-64671715D01*
X80074012Y-64630074D01*
X80032810Y-64573646D01*
X80025500Y-64531699D01*
X80025500Y-54757149D01*
X80025500Y-54757147D01*
X80003318Y-54674362D01*
X80003318Y-54674361D01*
X79960465Y-54600138D01*
X78699862Y-53339535D01*
X78662750Y-53318108D01*
X78625640Y-53296682D01*
X78584246Y-53285591D01*
X78542853Y-53274500D01*
X78542852Y-53274500D01*
X76980799Y-53274500D01*
X76913760Y-53254815D01*
X76882423Y-53225986D01*
X76840783Y-53171719D01*
X76840782Y-53171718D01*
X76715341Y-53075464D01*
X76569262Y-53014956D01*
X76569260Y-53014955D01*
X76412501Y-52994318D01*
X76412499Y-52994318D01*
X76255739Y-53014955D01*
X76255737Y-53014956D01*
X76109660Y-53075463D01*
X75984218Y-53171718D01*
X75887963Y-53297160D01*
X75827456Y-53443237D01*
X75827455Y-53443239D01*
X75806818Y-53599998D01*
X58755885Y-53599998D01*
X58775583Y-53400000D01*
X58755300Y-53194066D01*
X58695232Y-52996046D01*
X58597685Y-52813550D01*
X58545702Y-52750209D01*
X58466410Y-52653589D01*
X58306452Y-52522317D01*
X58306453Y-52522317D01*
X58306450Y-52522315D01*
X58123954Y-52424768D01*
X57925934Y-52364700D01*
X57925932Y-52364699D01*
X57925934Y-52364699D01*
X57720000Y-52344417D01*
X57514067Y-52364699D01*
X57316043Y-52424769D01*
X57205898Y-52483643D01*
X57133550Y-52522315D01*
X57133548Y-52522316D01*
X57133547Y-52522317D01*
X56973589Y-52653589D01*
X56842317Y-52813547D01*
X56744769Y-52996043D01*
X56684699Y-53194067D01*
X56664417Y-53400000D01*
X56235583Y-53400000D01*
X56215300Y-53194066D01*
X56155232Y-52996046D01*
X56057685Y-52813550D01*
X56005702Y-52750209D01*
X55926410Y-52653589D01*
X55766452Y-52522317D01*
X55766453Y-52522317D01*
X55766450Y-52522315D01*
X55583954Y-52424768D01*
X55385934Y-52364700D01*
X55385932Y-52364699D01*
X55385934Y-52364699D01*
X55180000Y-52344417D01*
X54974067Y-52364699D01*
X54776043Y-52424769D01*
X54665898Y-52483643D01*
X54593550Y-52522315D01*
X54593548Y-52522316D01*
X54593547Y-52522317D01*
X54433589Y-52653589D01*
X54302317Y-52813547D01*
X54204769Y-52996043D01*
X54144699Y-53194067D01*
X54124417Y-53400000D01*
X54144699Y-53605932D01*
X54144700Y-53605934D01*
X54204768Y-53803954D01*
X54302315Y-53986450D01*
X54302317Y-53986452D01*
X54433589Y-54146410D01*
X54530209Y-54225702D01*
X54593550Y-54277685D01*
X54776046Y-54375232D01*
X54776051Y-54375233D01*
X54777951Y-54376021D01*
X54778796Y-54376701D01*
X54781419Y-54378104D01*
X54781153Y-54378601D01*
X54832355Y-54419862D01*
X54854421Y-54486156D01*
X54854500Y-54490583D01*
X54854500Y-57194811D01*
X54834815Y-57261850D01*
X54782011Y-57307605D01*
X54712853Y-57317549D01*
X54649297Y-57288524D01*
X54642819Y-57282492D01*
X53001819Y-55641492D01*
X52968334Y-55580169D01*
X52965500Y-55553811D01*
X52965500Y-54490583D01*
X52985185Y-54423544D01*
X53037989Y-54377789D01*
X53042049Y-54376021D01*
X53043945Y-54375234D01*
X53043954Y-54375232D01*
X53226450Y-54277685D01*
X53386410Y-54146410D01*
X53517685Y-53986450D01*
X53615232Y-53803954D01*
X53675300Y-53605934D01*
X53695583Y-53400000D01*
X53675300Y-53194066D01*
X53615232Y-52996046D01*
X53517685Y-52813550D01*
X53465702Y-52750209D01*
X53386410Y-52653589D01*
X53226452Y-52522317D01*
X53226453Y-52522317D01*
X53226450Y-52522315D01*
X53043954Y-52424768D01*
X52845934Y-52364700D01*
X52845932Y-52364699D01*
X52845934Y-52364699D01*
X52640000Y-52344417D01*
X52434067Y-52364699D01*
X52236043Y-52424769D01*
X52125898Y-52483643D01*
X52053550Y-52522315D01*
X52053548Y-52522316D01*
X52053547Y-52522317D01*
X51893589Y-52653589D01*
X51762317Y-52813547D01*
X51664769Y-52996043D01*
X51604699Y-53194067D01*
X51584417Y-53400000D01*
X42100000Y-53400000D01*
X42100000Y-44599998D01*
X69594318Y-44599998D01*
X69594318Y-44600001D01*
X69614955Y-44756760D01*
X69614956Y-44756762D01*
X69675464Y-44902841D01*
X69771718Y-45028282D01*
X69897159Y-45124536D01*
X70043238Y-45185044D01*
X70121619Y-45195363D01*
X70199999Y-45205682D01*
X70200000Y-45205682D01*
X70200001Y-45205682D01*
X70252254Y-45198802D01*
X70356762Y-45185044D01*
X70502841Y-45124536D01*
X70628282Y-45028282D01*
X70724536Y-44902841D01*
X70785044Y-44756762D01*
X70805682Y-44600000D01*
X70796753Y-44532180D01*
X70807518Y-44463145D01*
X70832008Y-44428316D01*
X70889652Y-44370673D01*
X70889657Y-44370669D01*
X70899860Y-44360465D01*
X70899862Y-44360465D01*
X70960465Y-44299862D01*
X70985770Y-44256033D01*
X71003318Y-44225639D01*
X71025500Y-44142853D01*
X71025500Y-44057147D01*
X71025500Y-31668298D01*
X71045185Y-31601259D01*
X71074010Y-31569925D01*
X71128282Y-31528282D01*
X71224536Y-31402841D01*
X71285044Y-31256762D01*
X71305682Y-31100000D01*
X71285044Y-30943238D01*
X71224536Y-30797159D01*
X71128282Y-30671718D01*
X71002841Y-30575464D01*
X70856762Y-30514956D01*
X70856760Y-30514955D01*
X70700001Y-30494318D01*
X70699999Y-30494318D01*
X70543239Y-30514955D01*
X70543237Y-30514956D01*
X70397160Y-30575463D01*
X70271718Y-30671718D01*
X70175463Y-30797160D01*
X70114956Y-30943237D01*
X70114955Y-30943239D01*
X70094318Y-31099998D01*
X70094318Y-31100001D01*
X70114955Y-31256760D01*
X70114956Y-31256762D01*
X70175464Y-31402841D01*
X70271718Y-31528282D01*
X70325987Y-31569924D01*
X70367189Y-31626349D01*
X70374500Y-31668298D01*
X70374500Y-43875896D01*
X70354815Y-43942935D01*
X70302011Y-43988690D01*
X70234316Y-43998835D01*
X70200003Y-43994318D01*
X70199999Y-43994318D01*
X70043239Y-44014955D01*
X70043237Y-44014956D01*
X69897160Y-44075463D01*
X69771718Y-44171718D01*
X69675463Y-44297160D01*
X69614956Y-44443237D01*
X69614955Y-44443239D01*
X69594318Y-44599998D01*
X42100000Y-44599998D01*
X42100000Y-23535000D01*
X82344417Y-23535000D01*
X82364699Y-23740932D01*
X82364700Y-23740934D01*
X82424768Y-23938954D01*
X82522315Y-24121450D01*
X82522317Y-24121452D01*
X82653589Y-24281410D01*
X82750209Y-24360702D01*
X82813550Y-24412685D01*
X82996046Y-24510232D01*
X83194066Y-24570300D01*
X83194065Y-24570300D01*
X83212529Y-24572118D01*
X83400000Y-24590583D01*
X83605934Y-24570300D01*
X83803954Y-24510232D01*
X83986450Y-24412685D01*
X84146410Y-24281410D01*
X84277685Y-24121450D01*
X84375232Y-23938954D01*
X84435300Y-23740934D01*
X84455583Y-23535000D01*
X84435300Y-23329066D01*
X84375232Y-23131046D01*
X84277685Y-22948550D01*
X84225702Y-22885209D01*
X84146410Y-22788589D01*
X83986452Y-22657317D01*
X83986453Y-22657317D01*
X83986450Y-22657315D01*
X83803954Y-22559768D01*
X83605934Y-22499700D01*
X83605932Y-22499699D01*
X83605934Y-22499699D01*
X83400000Y-22479417D01*
X83194067Y-22499699D01*
X82996043Y-22559769D01*
X82885898Y-22618643D01*
X82813550Y-22657315D01*
X82813548Y-22657316D01*
X82813547Y-22657317D01*
X82653589Y-22788589D01*
X82522317Y-22948547D01*
X82424769Y-23131043D01*
X82364699Y-23329067D01*
X82344417Y-23535000D01*
X42100000Y-23535000D01*
X42100000Y-20324000D01*
X42119685Y-20256961D01*
X42172489Y-20211206D01*
X42224000Y-20200000D01*
X86876000Y-20200000D01*
X86943039Y-20219685D01*
G37*
%TD.AperFunction*%
%TD*%
%TA.AperFunction,NonConductor*%
G36*
X68803161Y-80068935D02*
G01*
X68827570Y-80087896D01*
X69467988Y-80728314D01*
X69501473Y-80789637D01*
X69503246Y-80832179D01*
X69494318Y-80899997D01*
X69494318Y-80900001D01*
X69514955Y-81056760D01*
X69514957Y-81056765D01*
X69575549Y-81203048D01*
X69583018Y-81272517D01*
X69551743Y-81334996D01*
X69491654Y-81370648D01*
X69460988Y-81374500D01*
X68737914Y-81374500D01*
X68670875Y-81354815D01*
X68625120Y-81302011D01*
X68615176Y-81232853D01*
X68623353Y-81203047D01*
X68634778Y-81175464D01*
X68685543Y-81052907D01*
X68699301Y-80948399D01*
X68706181Y-80896146D01*
X68706181Y-80896143D01*
X68685543Y-80739384D01*
X68685543Y-80739383D01*
X68625035Y-80593304D01*
X68528781Y-80467863D01*
X68528778Y-80467860D01*
X68528776Y-80467858D01*
X68527042Y-80466124D01*
X68526046Y-80464300D01*
X68523833Y-80461416D01*
X68524282Y-80461070D01*
X68493557Y-80404801D01*
X68498541Y-80335109D01*
X68516343Y-80302962D01*
X68595801Y-80199411D01*
X68625330Y-80128120D01*
X68669168Y-80073722D01*
X68735462Y-80051656D01*
X68803161Y-80068935D01*
G37*
%TD.AperFunction*%
%TA.AperFunction,NonConductor*%
G36*
X71280850Y-83645185D02*
G01*
X71301492Y-83661819D01*
X75598181Y-87958508D01*
X75631666Y-88019831D01*
X75634500Y-88046189D01*
X75634500Y-96309417D01*
X75614815Y-96376456D01*
X75562011Y-96422211D01*
X75557951Y-96423979D01*
X75556045Y-96424768D01*
X75468494Y-96471566D01*
X75373550Y-96522315D01*
X75373548Y-96522316D01*
X75373547Y-96522317D01*
X75213589Y-96653589D01*
X75082317Y-96813547D01*
X74984769Y-96996043D01*
X74924699Y-97194067D01*
X74904417Y-97400000D01*
X74924699Y-97605932D01*
X74938896Y-97652732D01*
X74984768Y-97803954D01*
X75082315Y-97986450D01*
X75082317Y-97986452D01*
X75213589Y-98146410D01*
X75309833Y-98225394D01*
X75373550Y-98277685D01*
X75556046Y-98375232D01*
X75742657Y-98431839D01*
X75801096Y-98470137D01*
X75829552Y-98533949D01*
X75818992Y-98603016D01*
X75772768Y-98655409D01*
X75706662Y-98674500D01*
X73673338Y-98674500D01*
X73606299Y-98654815D01*
X73560544Y-98602011D01*
X73550600Y-98532853D01*
X73579625Y-98469297D01*
X73637342Y-98431839D01*
X73823954Y-98375232D01*
X74006450Y-98277685D01*
X74166410Y-98146410D01*
X74297685Y-97986450D01*
X74395232Y-97803954D01*
X74455300Y-97605934D01*
X74475583Y-97400000D01*
X74455300Y-97194066D01*
X74395232Y-96996046D01*
X74297685Y-96813550D01*
X74245702Y-96750209D01*
X74166410Y-96653589D01*
X74006452Y-96522317D01*
X74006453Y-96522317D01*
X74006450Y-96522315D01*
X73823954Y-96424768D01*
X73822049Y-96423979D01*
X73821203Y-96423298D01*
X73818581Y-96421896D01*
X73818846Y-96421398D01*
X73767645Y-96380138D01*
X73745579Y-96313844D01*
X73745500Y-96309417D01*
X73745500Y-89277149D01*
X73745500Y-89277147D01*
X73726351Y-89205682D01*
X73723318Y-89194361D01*
X73705762Y-89163954D01*
X73683004Y-89124535D01*
X73683004Y-89124536D01*
X73680465Y-89120138D01*
X73680464Y-89120137D01*
X73680463Y-89120135D01*
X73615543Y-89055215D01*
X73615520Y-89055194D01*
X68397508Y-83837181D01*
X68364023Y-83775858D01*
X68369007Y-83706166D01*
X68410879Y-83650233D01*
X68476343Y-83625816D01*
X68485189Y-83625500D01*
X71213811Y-83625500D01*
X71280850Y-83645185D01*
G37*
%TD.AperFunction*%
D16*
X42100000Y-20200000D02*
X87100000Y-20200000D01*
X87100000Y-100200000D01*
X42100000Y-100200000D01*
X42100000Y-20200000D01*
M02*
