%TF.GenerationSoftware,KiCad,Pcbnew,8.0.7*%
%TF.CreationDate,2025-03-07T17:05:54+07:00*%
%TF.ProjectId,BTL_NGUYENTRUNG,42544c5f-4e47-4555-9945-4e5452554e47,rev?*%
%TF.SameCoordinates,Original*%
%TF.FileFunction,Legend,Top*%
%TF.FilePolarity,Positive*%
%FSLAX46Y46*%
G04 Gerber Fmt 4.6, Leading zero omitted, Abs format (unit mm)*
G04 Created by KiCad (PCBNEW 8.0.7) date 2025-03-07 17:05:54*
%MOMM*%
%LPD*%
G01*
G04 APERTURE LIST*
%ADD10C,0.150000*%
%ADD11C,0.120000*%
%ADD12C,0.152400*%
%TA.AperFunction,Profile*%
%ADD13C,0.200000*%
%TD*%
G04 APERTURE END LIST*
D10*
X84507200Y-37033332D02*
X84554819Y-36890475D01*
X84554819Y-36890475D02*
X84554819Y-36652380D01*
X84554819Y-36652380D02*
X84507200Y-36557142D01*
X84507200Y-36557142D02*
X84459580Y-36509523D01*
X84459580Y-36509523D02*
X84364342Y-36461904D01*
X84364342Y-36461904D02*
X84269104Y-36461904D01*
X84269104Y-36461904D02*
X84173866Y-36509523D01*
X84173866Y-36509523D02*
X84126247Y-36557142D01*
X84126247Y-36557142D02*
X84078628Y-36652380D01*
X84078628Y-36652380D02*
X84031009Y-36842856D01*
X84031009Y-36842856D02*
X83983390Y-36938094D01*
X83983390Y-36938094D02*
X83935771Y-36985713D01*
X83935771Y-36985713D02*
X83840533Y-37033332D01*
X83840533Y-37033332D02*
X83745295Y-37033332D01*
X83745295Y-37033332D02*
X83650057Y-36985713D01*
X83650057Y-36985713D02*
X83602438Y-36938094D01*
X83602438Y-36938094D02*
X83554819Y-36842856D01*
X83554819Y-36842856D02*
X83554819Y-36604761D01*
X83554819Y-36604761D02*
X83602438Y-36461904D01*
X83554819Y-36128570D02*
X84554819Y-35890475D01*
X84554819Y-35890475D02*
X83840533Y-35699999D01*
X83840533Y-35699999D02*
X84554819Y-35509523D01*
X84554819Y-35509523D02*
X83554819Y-35271428D01*
X84554819Y-34366666D02*
X84554819Y-34938094D01*
X84554819Y-34652380D02*
X83554819Y-34652380D01*
X83554819Y-34652380D02*
X83697676Y-34747618D01*
X83697676Y-34747618D02*
X83792914Y-34842856D01*
X83792914Y-34842856D02*
X83840533Y-34938094D01*
X66458333Y-55989580D02*
X66410714Y-56037200D01*
X66410714Y-56037200D02*
X66267857Y-56084819D01*
X66267857Y-56084819D02*
X66172619Y-56084819D01*
X66172619Y-56084819D02*
X66029762Y-56037200D01*
X66029762Y-56037200D02*
X65934524Y-55941961D01*
X65934524Y-55941961D02*
X65886905Y-55846723D01*
X65886905Y-55846723D02*
X65839286Y-55656247D01*
X65839286Y-55656247D02*
X65839286Y-55513390D01*
X65839286Y-55513390D02*
X65886905Y-55322914D01*
X65886905Y-55322914D02*
X65934524Y-55227676D01*
X65934524Y-55227676D02*
X66029762Y-55132438D01*
X66029762Y-55132438D02*
X66172619Y-55084819D01*
X66172619Y-55084819D02*
X66267857Y-55084819D01*
X66267857Y-55084819D02*
X66410714Y-55132438D01*
X66410714Y-55132438D02*
X66458333Y-55180057D01*
X67363095Y-55084819D02*
X66886905Y-55084819D01*
X66886905Y-55084819D02*
X66839286Y-55561009D01*
X66839286Y-55561009D02*
X66886905Y-55513390D01*
X66886905Y-55513390D02*
X66982143Y-55465771D01*
X66982143Y-55465771D02*
X67220238Y-55465771D01*
X67220238Y-55465771D02*
X67315476Y-55513390D01*
X67315476Y-55513390D02*
X67363095Y-55561009D01*
X67363095Y-55561009D02*
X67410714Y-55656247D01*
X67410714Y-55656247D02*
X67410714Y-55894342D01*
X67410714Y-55894342D02*
X67363095Y-55989580D01*
X67363095Y-55989580D02*
X67315476Y-56037200D01*
X67315476Y-56037200D02*
X67220238Y-56084819D01*
X67220238Y-56084819D02*
X66982143Y-56084819D01*
X66982143Y-56084819D02*
X66886905Y-56037200D01*
X66886905Y-56037200D02*
X66839286Y-55989580D01*
X75454819Y-34642857D02*
X74978628Y-34976190D01*
X75454819Y-35214285D02*
X74454819Y-35214285D01*
X74454819Y-35214285D02*
X74454819Y-34833333D01*
X74454819Y-34833333D02*
X74502438Y-34738095D01*
X74502438Y-34738095D02*
X74550057Y-34690476D01*
X74550057Y-34690476D02*
X74645295Y-34642857D01*
X74645295Y-34642857D02*
X74788152Y-34642857D01*
X74788152Y-34642857D02*
X74883390Y-34690476D01*
X74883390Y-34690476D02*
X74931009Y-34738095D01*
X74931009Y-34738095D02*
X74978628Y-34833333D01*
X74978628Y-34833333D02*
X74978628Y-35214285D01*
X75454819Y-33690476D02*
X75454819Y-34261904D01*
X75454819Y-33976190D02*
X74454819Y-33976190D01*
X74454819Y-33976190D02*
X74597676Y-34071428D01*
X74597676Y-34071428D02*
X74692914Y-34166666D01*
X74692914Y-34166666D02*
X74740533Y-34261904D01*
X74454819Y-32833333D02*
X74454819Y-33023809D01*
X74454819Y-33023809D02*
X74502438Y-33119047D01*
X74502438Y-33119047D02*
X74550057Y-33166666D01*
X74550057Y-33166666D02*
X74692914Y-33261904D01*
X74692914Y-33261904D02*
X74883390Y-33309523D01*
X74883390Y-33309523D02*
X75264342Y-33309523D01*
X75264342Y-33309523D02*
X75359580Y-33261904D01*
X75359580Y-33261904D02*
X75407200Y-33214285D01*
X75407200Y-33214285D02*
X75454819Y-33119047D01*
X75454819Y-33119047D02*
X75454819Y-32928571D01*
X75454819Y-32928571D02*
X75407200Y-32833333D01*
X75407200Y-32833333D02*
X75359580Y-32785714D01*
X75359580Y-32785714D02*
X75264342Y-32738095D01*
X75264342Y-32738095D02*
X75026247Y-32738095D01*
X75026247Y-32738095D02*
X74931009Y-32785714D01*
X74931009Y-32785714D02*
X74883390Y-32833333D01*
X74883390Y-32833333D02*
X74835771Y-32928571D01*
X74835771Y-32928571D02*
X74835771Y-33119047D01*
X74835771Y-33119047D02*
X74883390Y-33214285D01*
X74883390Y-33214285D02*
X74931009Y-33261904D01*
X74931009Y-33261904D02*
X75026247Y-33309523D01*
X66458333Y-53479580D02*
X66410714Y-53527200D01*
X66410714Y-53527200D02*
X66267857Y-53574819D01*
X66267857Y-53574819D02*
X66172619Y-53574819D01*
X66172619Y-53574819D02*
X66029762Y-53527200D01*
X66029762Y-53527200D02*
X65934524Y-53431961D01*
X65934524Y-53431961D02*
X65886905Y-53336723D01*
X65886905Y-53336723D02*
X65839286Y-53146247D01*
X65839286Y-53146247D02*
X65839286Y-53003390D01*
X65839286Y-53003390D02*
X65886905Y-52812914D01*
X65886905Y-52812914D02*
X65934524Y-52717676D01*
X65934524Y-52717676D02*
X66029762Y-52622438D01*
X66029762Y-52622438D02*
X66172619Y-52574819D01*
X66172619Y-52574819D02*
X66267857Y-52574819D01*
X66267857Y-52574819D02*
X66410714Y-52622438D01*
X66410714Y-52622438D02*
X66458333Y-52670057D01*
X67315476Y-52574819D02*
X67125000Y-52574819D01*
X67125000Y-52574819D02*
X67029762Y-52622438D01*
X67029762Y-52622438D02*
X66982143Y-52670057D01*
X66982143Y-52670057D02*
X66886905Y-52812914D01*
X66886905Y-52812914D02*
X66839286Y-53003390D01*
X66839286Y-53003390D02*
X66839286Y-53384342D01*
X66839286Y-53384342D02*
X66886905Y-53479580D01*
X66886905Y-53479580D02*
X66934524Y-53527200D01*
X66934524Y-53527200D02*
X67029762Y-53574819D01*
X67029762Y-53574819D02*
X67220238Y-53574819D01*
X67220238Y-53574819D02*
X67315476Y-53527200D01*
X67315476Y-53527200D02*
X67363095Y-53479580D01*
X67363095Y-53479580D02*
X67410714Y-53384342D01*
X67410714Y-53384342D02*
X67410714Y-53146247D01*
X67410714Y-53146247D02*
X67363095Y-53051009D01*
X67363095Y-53051009D02*
X67315476Y-53003390D01*
X67315476Y-53003390D02*
X67220238Y-52955771D01*
X67220238Y-52955771D02*
X67029762Y-52955771D01*
X67029762Y-52955771D02*
X66934524Y-53003390D01*
X66934524Y-53003390D02*
X66886905Y-53051009D01*
X66886905Y-53051009D02*
X66839286Y-53146247D01*
X72429580Y-37917857D02*
X72477200Y-37965476D01*
X72477200Y-37965476D02*
X72524819Y-38108333D01*
X72524819Y-38108333D02*
X72524819Y-38203571D01*
X72524819Y-38203571D02*
X72477200Y-38346428D01*
X72477200Y-38346428D02*
X72381961Y-38441666D01*
X72381961Y-38441666D02*
X72286723Y-38489285D01*
X72286723Y-38489285D02*
X72096247Y-38536904D01*
X72096247Y-38536904D02*
X71953390Y-38536904D01*
X71953390Y-38536904D02*
X71762914Y-38489285D01*
X71762914Y-38489285D02*
X71667676Y-38441666D01*
X71667676Y-38441666D02*
X71572438Y-38346428D01*
X71572438Y-38346428D02*
X71524819Y-38203571D01*
X71524819Y-38203571D02*
X71524819Y-38108333D01*
X71524819Y-38108333D02*
X71572438Y-37965476D01*
X71572438Y-37965476D02*
X71620057Y-37917857D01*
X72524819Y-36965476D02*
X72524819Y-37536904D01*
X72524819Y-37251190D02*
X71524819Y-37251190D01*
X71524819Y-37251190D02*
X71667676Y-37346428D01*
X71667676Y-37346428D02*
X71762914Y-37441666D01*
X71762914Y-37441666D02*
X71810533Y-37536904D01*
X71524819Y-36060714D02*
X71524819Y-36536904D01*
X71524819Y-36536904D02*
X72001009Y-36584523D01*
X72001009Y-36584523D02*
X71953390Y-36536904D01*
X71953390Y-36536904D02*
X71905771Y-36441666D01*
X71905771Y-36441666D02*
X71905771Y-36203571D01*
X71905771Y-36203571D02*
X71953390Y-36108333D01*
X71953390Y-36108333D02*
X72001009Y-36060714D01*
X72001009Y-36060714D02*
X72096247Y-36013095D01*
X72096247Y-36013095D02*
X72334342Y-36013095D01*
X72334342Y-36013095D02*
X72429580Y-36060714D01*
X72429580Y-36060714D02*
X72477200Y-36108333D01*
X72477200Y-36108333D02*
X72524819Y-36203571D01*
X72524819Y-36203571D02*
X72524819Y-36441666D01*
X72524819Y-36441666D02*
X72477200Y-36536904D01*
X72477200Y-36536904D02*
X72429580Y-36584523D01*
X78033333Y-60759580D02*
X77985714Y-60807200D01*
X77985714Y-60807200D02*
X77842857Y-60854819D01*
X77842857Y-60854819D02*
X77747619Y-60854819D01*
X77747619Y-60854819D02*
X77604762Y-60807200D01*
X77604762Y-60807200D02*
X77509524Y-60711961D01*
X77509524Y-60711961D02*
X77461905Y-60616723D01*
X77461905Y-60616723D02*
X77414286Y-60426247D01*
X77414286Y-60426247D02*
X77414286Y-60283390D01*
X77414286Y-60283390D02*
X77461905Y-60092914D01*
X77461905Y-60092914D02*
X77509524Y-59997676D01*
X77509524Y-59997676D02*
X77604762Y-59902438D01*
X77604762Y-59902438D02*
X77747619Y-59854819D01*
X77747619Y-59854819D02*
X77842857Y-59854819D01*
X77842857Y-59854819D02*
X77985714Y-59902438D01*
X77985714Y-59902438D02*
X78033333Y-59950057D01*
X78414286Y-59950057D02*
X78461905Y-59902438D01*
X78461905Y-59902438D02*
X78557143Y-59854819D01*
X78557143Y-59854819D02*
X78795238Y-59854819D01*
X78795238Y-59854819D02*
X78890476Y-59902438D01*
X78890476Y-59902438D02*
X78938095Y-59950057D01*
X78938095Y-59950057D02*
X78985714Y-60045295D01*
X78985714Y-60045295D02*
X78985714Y-60140533D01*
X78985714Y-60140533D02*
X78938095Y-60283390D01*
X78938095Y-60283390D02*
X78366667Y-60854819D01*
X78366667Y-60854819D02*
X78985714Y-60854819D01*
X62043524Y-81618795D02*
X63372877Y-81618795D01*
X63372877Y-81618795D02*
X63529271Y-81540598D01*
X63529271Y-81540598D02*
X63607469Y-81462401D01*
X63607469Y-81462401D02*
X63685666Y-81306006D01*
X63685666Y-81306006D02*
X63685666Y-80993217D01*
X63685666Y-80993217D02*
X63607469Y-80836823D01*
X63607469Y-80836823D02*
X63529271Y-80758626D01*
X63529271Y-80758626D02*
X63372877Y-80680428D01*
X63372877Y-80680428D02*
X62043524Y-80680428D01*
X63685666Y-79038287D02*
X63685666Y-79976654D01*
X63685666Y-79507470D02*
X62043524Y-79507470D01*
X62043524Y-79507470D02*
X62278115Y-79663865D01*
X62278115Y-79663865D02*
X62434510Y-79820259D01*
X62434510Y-79820259D02*
X62512707Y-79976654D01*
X69159580Y-38142857D02*
X69207200Y-38190476D01*
X69207200Y-38190476D02*
X69254819Y-38333333D01*
X69254819Y-38333333D02*
X69254819Y-38428571D01*
X69254819Y-38428571D02*
X69207200Y-38571428D01*
X69207200Y-38571428D02*
X69111961Y-38666666D01*
X69111961Y-38666666D02*
X69016723Y-38714285D01*
X69016723Y-38714285D02*
X68826247Y-38761904D01*
X68826247Y-38761904D02*
X68683390Y-38761904D01*
X68683390Y-38761904D02*
X68492914Y-38714285D01*
X68492914Y-38714285D02*
X68397676Y-38666666D01*
X68397676Y-38666666D02*
X68302438Y-38571428D01*
X68302438Y-38571428D02*
X68254819Y-38428571D01*
X68254819Y-38428571D02*
X68254819Y-38333333D01*
X68254819Y-38333333D02*
X68302438Y-38190476D01*
X68302438Y-38190476D02*
X68350057Y-38142857D01*
X69254819Y-37190476D02*
X69254819Y-37761904D01*
X69254819Y-37476190D02*
X68254819Y-37476190D01*
X68254819Y-37476190D02*
X68397676Y-37571428D01*
X68397676Y-37571428D02*
X68492914Y-37666666D01*
X68492914Y-37666666D02*
X68540533Y-37761904D01*
X68254819Y-36857142D02*
X68254819Y-36238095D01*
X68254819Y-36238095D02*
X68635771Y-36571428D01*
X68635771Y-36571428D02*
X68635771Y-36428571D01*
X68635771Y-36428571D02*
X68683390Y-36333333D01*
X68683390Y-36333333D02*
X68731009Y-36285714D01*
X68731009Y-36285714D02*
X68826247Y-36238095D01*
X68826247Y-36238095D02*
X69064342Y-36238095D01*
X69064342Y-36238095D02*
X69159580Y-36285714D01*
X69159580Y-36285714D02*
X69207200Y-36333333D01*
X69207200Y-36333333D02*
X69254819Y-36428571D01*
X69254819Y-36428571D02*
X69254819Y-36714285D01*
X69254819Y-36714285D02*
X69207200Y-36809523D01*
X69207200Y-36809523D02*
X69159580Y-36857142D01*
X79833333Y-35154819D02*
X79500000Y-34678628D01*
X79261905Y-35154819D02*
X79261905Y-34154819D01*
X79261905Y-34154819D02*
X79642857Y-34154819D01*
X79642857Y-34154819D02*
X79738095Y-34202438D01*
X79738095Y-34202438D02*
X79785714Y-34250057D01*
X79785714Y-34250057D02*
X79833333Y-34345295D01*
X79833333Y-34345295D02*
X79833333Y-34488152D01*
X79833333Y-34488152D02*
X79785714Y-34583390D01*
X79785714Y-34583390D02*
X79738095Y-34631009D01*
X79738095Y-34631009D02*
X79642857Y-34678628D01*
X79642857Y-34678628D02*
X79261905Y-34678628D01*
X80785714Y-35154819D02*
X80214286Y-35154819D01*
X80500000Y-35154819D02*
X80500000Y-34154819D01*
X80500000Y-34154819D02*
X80404762Y-34297676D01*
X80404762Y-34297676D02*
X80309524Y-34392914D01*
X80309524Y-34392914D02*
X80214286Y-34440533D01*
X66458333Y-50969580D02*
X66410714Y-51017200D01*
X66410714Y-51017200D02*
X66267857Y-51064819D01*
X66267857Y-51064819D02*
X66172619Y-51064819D01*
X66172619Y-51064819D02*
X66029762Y-51017200D01*
X66029762Y-51017200D02*
X65934524Y-50921961D01*
X65934524Y-50921961D02*
X65886905Y-50826723D01*
X65886905Y-50826723D02*
X65839286Y-50636247D01*
X65839286Y-50636247D02*
X65839286Y-50493390D01*
X65839286Y-50493390D02*
X65886905Y-50302914D01*
X65886905Y-50302914D02*
X65934524Y-50207676D01*
X65934524Y-50207676D02*
X66029762Y-50112438D01*
X66029762Y-50112438D02*
X66172619Y-50064819D01*
X66172619Y-50064819D02*
X66267857Y-50064819D01*
X66267857Y-50064819D02*
X66410714Y-50112438D01*
X66410714Y-50112438D02*
X66458333Y-50160057D01*
X66791667Y-50064819D02*
X67458333Y-50064819D01*
X67458333Y-50064819D02*
X67029762Y-51064819D01*
X73233333Y-45054819D02*
X72757143Y-45054819D01*
X72757143Y-45054819D02*
X72757143Y-44054819D01*
X73519048Y-44150057D02*
X73566667Y-44102438D01*
X73566667Y-44102438D02*
X73661905Y-44054819D01*
X73661905Y-44054819D02*
X73900000Y-44054819D01*
X73900000Y-44054819D02*
X73995238Y-44102438D01*
X73995238Y-44102438D02*
X74042857Y-44150057D01*
X74042857Y-44150057D02*
X74090476Y-44245295D01*
X74090476Y-44245295D02*
X74090476Y-44340533D01*
X74090476Y-44340533D02*
X74042857Y-44483390D01*
X74042857Y-44483390D02*
X73471429Y-45054819D01*
X73471429Y-45054819D02*
X74090476Y-45054819D01*
X84307200Y-55008332D02*
X84354819Y-54865475D01*
X84354819Y-54865475D02*
X84354819Y-54627380D01*
X84354819Y-54627380D02*
X84307200Y-54532142D01*
X84307200Y-54532142D02*
X84259580Y-54484523D01*
X84259580Y-54484523D02*
X84164342Y-54436904D01*
X84164342Y-54436904D02*
X84069104Y-54436904D01*
X84069104Y-54436904D02*
X83973866Y-54484523D01*
X83973866Y-54484523D02*
X83926247Y-54532142D01*
X83926247Y-54532142D02*
X83878628Y-54627380D01*
X83878628Y-54627380D02*
X83831009Y-54817856D01*
X83831009Y-54817856D02*
X83783390Y-54913094D01*
X83783390Y-54913094D02*
X83735771Y-54960713D01*
X83735771Y-54960713D02*
X83640533Y-55008332D01*
X83640533Y-55008332D02*
X83545295Y-55008332D01*
X83545295Y-55008332D02*
X83450057Y-54960713D01*
X83450057Y-54960713D02*
X83402438Y-54913094D01*
X83402438Y-54913094D02*
X83354819Y-54817856D01*
X83354819Y-54817856D02*
X83354819Y-54579761D01*
X83354819Y-54579761D02*
X83402438Y-54436904D01*
X83354819Y-54103570D02*
X84354819Y-53865475D01*
X84354819Y-53865475D02*
X83640533Y-53674999D01*
X83640533Y-53674999D02*
X84354819Y-53484523D01*
X84354819Y-53484523D02*
X83354819Y-53246428D01*
X83450057Y-52913094D02*
X83402438Y-52865475D01*
X83402438Y-52865475D02*
X83354819Y-52770237D01*
X83354819Y-52770237D02*
X83354819Y-52532142D01*
X83354819Y-52532142D02*
X83402438Y-52436904D01*
X83402438Y-52436904D02*
X83450057Y-52389285D01*
X83450057Y-52389285D02*
X83545295Y-52341666D01*
X83545295Y-52341666D02*
X83640533Y-52341666D01*
X83640533Y-52341666D02*
X83783390Y-52389285D01*
X83783390Y-52389285D02*
X84354819Y-52960713D01*
X84354819Y-52960713D02*
X84354819Y-52341666D01*
X68754819Y-27161904D02*
X69564342Y-27161904D01*
X69564342Y-27161904D02*
X69659580Y-27114285D01*
X69659580Y-27114285D02*
X69707200Y-27066666D01*
X69707200Y-27066666D02*
X69754819Y-26971428D01*
X69754819Y-26971428D02*
X69754819Y-26780952D01*
X69754819Y-26780952D02*
X69707200Y-26685714D01*
X69707200Y-26685714D02*
X69659580Y-26638095D01*
X69659580Y-26638095D02*
X69564342Y-26590476D01*
X69564342Y-26590476D02*
X68754819Y-26590476D01*
X68754819Y-26209523D02*
X68754819Y-25590476D01*
X68754819Y-25590476D02*
X69135771Y-25923809D01*
X69135771Y-25923809D02*
X69135771Y-25780952D01*
X69135771Y-25780952D02*
X69183390Y-25685714D01*
X69183390Y-25685714D02*
X69231009Y-25638095D01*
X69231009Y-25638095D02*
X69326247Y-25590476D01*
X69326247Y-25590476D02*
X69564342Y-25590476D01*
X69564342Y-25590476D02*
X69659580Y-25638095D01*
X69659580Y-25638095D02*
X69707200Y-25685714D01*
X69707200Y-25685714D02*
X69754819Y-25780952D01*
X69754819Y-25780952D02*
X69754819Y-26066666D01*
X69754819Y-26066666D02*
X69707200Y-26161904D01*
X69707200Y-26161904D02*
X69659580Y-26209523D01*
X44466666Y-98604819D02*
X44466666Y-99319104D01*
X44466666Y-99319104D02*
X44419047Y-99461961D01*
X44419047Y-99461961D02*
X44323809Y-99557200D01*
X44323809Y-99557200D02*
X44180952Y-99604819D01*
X44180952Y-99604819D02*
X44085714Y-99604819D01*
X44895238Y-98700057D02*
X44942857Y-98652438D01*
X44942857Y-98652438D02*
X45038095Y-98604819D01*
X45038095Y-98604819D02*
X45276190Y-98604819D01*
X45276190Y-98604819D02*
X45371428Y-98652438D01*
X45371428Y-98652438D02*
X45419047Y-98700057D01*
X45419047Y-98700057D02*
X45466666Y-98795295D01*
X45466666Y-98795295D02*
X45466666Y-98890533D01*
X45466666Y-98890533D02*
X45419047Y-99033390D01*
X45419047Y-99033390D02*
X44847619Y-99604819D01*
X44847619Y-99604819D02*
X45466666Y-99604819D01*
X75324819Y-37942857D02*
X74848628Y-38276190D01*
X75324819Y-38514285D02*
X74324819Y-38514285D01*
X74324819Y-38514285D02*
X74324819Y-38133333D01*
X74324819Y-38133333D02*
X74372438Y-38038095D01*
X74372438Y-38038095D02*
X74420057Y-37990476D01*
X74420057Y-37990476D02*
X74515295Y-37942857D01*
X74515295Y-37942857D02*
X74658152Y-37942857D01*
X74658152Y-37942857D02*
X74753390Y-37990476D01*
X74753390Y-37990476D02*
X74801009Y-38038095D01*
X74801009Y-38038095D02*
X74848628Y-38133333D01*
X74848628Y-38133333D02*
X74848628Y-38514285D01*
X75324819Y-36990476D02*
X75324819Y-37561904D01*
X75324819Y-37276190D02*
X74324819Y-37276190D01*
X74324819Y-37276190D02*
X74467676Y-37371428D01*
X74467676Y-37371428D02*
X74562914Y-37466666D01*
X74562914Y-37466666D02*
X74610533Y-37561904D01*
X74324819Y-36657142D02*
X74324819Y-35990476D01*
X74324819Y-35990476D02*
X75324819Y-36419047D01*
X69454819Y-34717857D02*
X68978628Y-35051190D01*
X69454819Y-35289285D02*
X68454819Y-35289285D01*
X68454819Y-35289285D02*
X68454819Y-34908333D01*
X68454819Y-34908333D02*
X68502438Y-34813095D01*
X68502438Y-34813095D02*
X68550057Y-34765476D01*
X68550057Y-34765476D02*
X68645295Y-34717857D01*
X68645295Y-34717857D02*
X68788152Y-34717857D01*
X68788152Y-34717857D02*
X68883390Y-34765476D01*
X68883390Y-34765476D02*
X68931009Y-34813095D01*
X68931009Y-34813095D02*
X68978628Y-34908333D01*
X68978628Y-34908333D02*
X68978628Y-35289285D01*
X69454819Y-33765476D02*
X69454819Y-34336904D01*
X69454819Y-34051190D02*
X68454819Y-34051190D01*
X68454819Y-34051190D02*
X68597676Y-34146428D01*
X68597676Y-34146428D02*
X68692914Y-34241666D01*
X68692914Y-34241666D02*
X68740533Y-34336904D01*
X68550057Y-33384523D02*
X68502438Y-33336904D01*
X68502438Y-33336904D02*
X68454819Y-33241666D01*
X68454819Y-33241666D02*
X68454819Y-33003571D01*
X68454819Y-33003571D02*
X68502438Y-32908333D01*
X68502438Y-32908333D02*
X68550057Y-32860714D01*
X68550057Y-32860714D02*
X68645295Y-32813095D01*
X68645295Y-32813095D02*
X68740533Y-32813095D01*
X68740533Y-32813095D02*
X68883390Y-32860714D01*
X68883390Y-32860714D02*
X69454819Y-33432142D01*
X69454819Y-33432142D02*
X69454819Y-32813095D01*
X52854819Y-93542857D02*
X52378628Y-93876190D01*
X52854819Y-94114285D02*
X51854819Y-94114285D01*
X51854819Y-94114285D02*
X51854819Y-93733333D01*
X51854819Y-93733333D02*
X51902438Y-93638095D01*
X51902438Y-93638095D02*
X51950057Y-93590476D01*
X51950057Y-93590476D02*
X52045295Y-93542857D01*
X52045295Y-93542857D02*
X52188152Y-93542857D01*
X52188152Y-93542857D02*
X52283390Y-93590476D01*
X52283390Y-93590476D02*
X52331009Y-93638095D01*
X52331009Y-93638095D02*
X52378628Y-93733333D01*
X52378628Y-93733333D02*
X52378628Y-94114285D01*
X51950057Y-93161904D02*
X51902438Y-93114285D01*
X51902438Y-93114285D02*
X51854819Y-93019047D01*
X51854819Y-93019047D02*
X51854819Y-92780952D01*
X51854819Y-92780952D02*
X51902438Y-92685714D01*
X51902438Y-92685714D02*
X51950057Y-92638095D01*
X51950057Y-92638095D02*
X52045295Y-92590476D01*
X52045295Y-92590476D02*
X52140533Y-92590476D01*
X52140533Y-92590476D02*
X52283390Y-92638095D01*
X52283390Y-92638095D02*
X52854819Y-93209523D01*
X52854819Y-93209523D02*
X52854819Y-92590476D01*
X51854819Y-91971428D02*
X51854819Y-91876190D01*
X51854819Y-91876190D02*
X51902438Y-91780952D01*
X51902438Y-91780952D02*
X51950057Y-91733333D01*
X51950057Y-91733333D02*
X52045295Y-91685714D01*
X52045295Y-91685714D02*
X52235771Y-91638095D01*
X52235771Y-91638095D02*
X52473866Y-91638095D01*
X52473866Y-91638095D02*
X52664342Y-91685714D01*
X52664342Y-91685714D02*
X52759580Y-91733333D01*
X52759580Y-91733333D02*
X52807200Y-91780952D01*
X52807200Y-91780952D02*
X52854819Y-91876190D01*
X52854819Y-91876190D02*
X52854819Y-91971428D01*
X52854819Y-91971428D02*
X52807200Y-92066666D01*
X52807200Y-92066666D02*
X52759580Y-92114285D01*
X52759580Y-92114285D02*
X52664342Y-92161904D01*
X52664342Y-92161904D02*
X52473866Y-92209523D01*
X52473866Y-92209523D02*
X52235771Y-92209523D01*
X52235771Y-92209523D02*
X52045295Y-92161904D01*
X52045295Y-92161904D02*
X51950057Y-92114285D01*
X51950057Y-92114285D02*
X51902438Y-92066666D01*
X51902438Y-92066666D02*
X51854819Y-91971428D01*
X74666666Y-99077319D02*
X74666666Y-99791604D01*
X74666666Y-99791604D02*
X74619047Y-99934461D01*
X74619047Y-99934461D02*
X74523809Y-100029700D01*
X74523809Y-100029700D02*
X74380952Y-100077319D01*
X74380952Y-100077319D02*
X74285714Y-100077319D01*
X75047619Y-99077319D02*
X75714285Y-99077319D01*
X75714285Y-99077319D02*
X75285714Y-100077319D01*
X79633333Y-32059580D02*
X79585714Y-32107200D01*
X79585714Y-32107200D02*
X79442857Y-32154819D01*
X79442857Y-32154819D02*
X79347619Y-32154819D01*
X79347619Y-32154819D02*
X79204762Y-32107200D01*
X79204762Y-32107200D02*
X79109524Y-32011961D01*
X79109524Y-32011961D02*
X79061905Y-31916723D01*
X79061905Y-31916723D02*
X79014286Y-31726247D01*
X79014286Y-31726247D02*
X79014286Y-31583390D01*
X79014286Y-31583390D02*
X79061905Y-31392914D01*
X79061905Y-31392914D02*
X79109524Y-31297676D01*
X79109524Y-31297676D02*
X79204762Y-31202438D01*
X79204762Y-31202438D02*
X79347619Y-31154819D01*
X79347619Y-31154819D02*
X79442857Y-31154819D01*
X79442857Y-31154819D02*
X79585714Y-31202438D01*
X79585714Y-31202438D02*
X79633333Y-31250057D01*
X80585714Y-32154819D02*
X80014286Y-32154819D01*
X80300000Y-32154819D02*
X80300000Y-31154819D01*
X80300000Y-31154819D02*
X80204762Y-31297676D01*
X80204762Y-31297676D02*
X80109524Y-31392914D01*
X80109524Y-31392914D02*
X80014286Y-31440533D01*
X70323809Y-63978628D02*
X70323809Y-64454819D01*
X69990476Y-63454819D02*
X70323809Y-63978628D01*
X70323809Y-63978628D02*
X70657142Y-63454819D01*
X71514285Y-64454819D02*
X70942857Y-64454819D01*
X71228571Y-64454819D02*
X71228571Y-63454819D01*
X71228571Y-63454819D02*
X71133333Y-63597676D01*
X71133333Y-63597676D02*
X71038095Y-63692914D01*
X71038095Y-63692914D02*
X70942857Y-63740533D01*
X78754819Y-25142857D02*
X78278628Y-25476190D01*
X78754819Y-25714285D02*
X77754819Y-25714285D01*
X77754819Y-25714285D02*
X77754819Y-25333333D01*
X77754819Y-25333333D02*
X77802438Y-25238095D01*
X77802438Y-25238095D02*
X77850057Y-25190476D01*
X77850057Y-25190476D02*
X77945295Y-25142857D01*
X77945295Y-25142857D02*
X78088152Y-25142857D01*
X78088152Y-25142857D02*
X78183390Y-25190476D01*
X78183390Y-25190476D02*
X78231009Y-25238095D01*
X78231009Y-25238095D02*
X78278628Y-25333333D01*
X78278628Y-25333333D02*
X78278628Y-25714285D01*
X78754819Y-24190476D02*
X78754819Y-24761904D01*
X78754819Y-24476190D02*
X77754819Y-24476190D01*
X77754819Y-24476190D02*
X77897676Y-24571428D01*
X77897676Y-24571428D02*
X77992914Y-24666666D01*
X77992914Y-24666666D02*
X78040533Y-24761904D01*
X78088152Y-23333333D02*
X78754819Y-23333333D01*
X77707200Y-23571428D02*
X78421485Y-23809523D01*
X78421485Y-23809523D02*
X78421485Y-23190476D01*
X86084819Y-43550594D02*
X85084819Y-43550594D01*
X85084819Y-43550594D02*
X85084819Y-43312499D01*
X85084819Y-43312499D02*
X85132438Y-43169642D01*
X85132438Y-43169642D02*
X85227676Y-43074404D01*
X85227676Y-43074404D02*
X85322914Y-43026785D01*
X85322914Y-43026785D02*
X85513390Y-42979166D01*
X85513390Y-42979166D02*
X85656247Y-42979166D01*
X85656247Y-42979166D02*
X85846723Y-43026785D01*
X85846723Y-43026785D02*
X85941961Y-43074404D01*
X85941961Y-43074404D02*
X86037200Y-43169642D01*
X86037200Y-43169642D02*
X86084819Y-43312499D01*
X86084819Y-43312499D02*
X86084819Y-43550594D01*
X85418152Y-42122023D02*
X86084819Y-42122023D01*
X85037200Y-42360118D02*
X85751485Y-42598213D01*
X85751485Y-42598213D02*
X85751485Y-41979166D01*
X64754819Y-45338094D02*
X63754819Y-45338094D01*
X63754819Y-45338094D02*
X63754819Y-45099999D01*
X63754819Y-45099999D02*
X63802438Y-44957142D01*
X63802438Y-44957142D02*
X63897676Y-44861904D01*
X63897676Y-44861904D02*
X63992914Y-44814285D01*
X63992914Y-44814285D02*
X64183390Y-44766666D01*
X64183390Y-44766666D02*
X64326247Y-44766666D01*
X64326247Y-44766666D02*
X64516723Y-44814285D01*
X64516723Y-44814285D02*
X64611961Y-44861904D01*
X64611961Y-44861904D02*
X64707200Y-44957142D01*
X64707200Y-44957142D02*
X64754819Y-45099999D01*
X64754819Y-45099999D02*
X64754819Y-45338094D01*
X63754819Y-44433332D02*
X63754819Y-43814285D01*
X63754819Y-43814285D02*
X64135771Y-44147618D01*
X64135771Y-44147618D02*
X64135771Y-44004761D01*
X64135771Y-44004761D02*
X64183390Y-43909523D01*
X64183390Y-43909523D02*
X64231009Y-43861904D01*
X64231009Y-43861904D02*
X64326247Y-43814285D01*
X64326247Y-43814285D02*
X64564342Y-43814285D01*
X64564342Y-43814285D02*
X64659580Y-43861904D01*
X64659580Y-43861904D02*
X64707200Y-43909523D01*
X64707200Y-43909523D02*
X64754819Y-44004761D01*
X64754819Y-44004761D02*
X64754819Y-44290475D01*
X64754819Y-44290475D02*
X64707200Y-44385713D01*
X64707200Y-44385713D02*
X64659580Y-44433332D01*
X70633333Y-60659580D02*
X70585714Y-60707200D01*
X70585714Y-60707200D02*
X70442857Y-60754819D01*
X70442857Y-60754819D02*
X70347619Y-60754819D01*
X70347619Y-60754819D02*
X70204762Y-60707200D01*
X70204762Y-60707200D02*
X70109524Y-60611961D01*
X70109524Y-60611961D02*
X70061905Y-60516723D01*
X70061905Y-60516723D02*
X70014286Y-60326247D01*
X70014286Y-60326247D02*
X70014286Y-60183390D01*
X70014286Y-60183390D02*
X70061905Y-59992914D01*
X70061905Y-59992914D02*
X70109524Y-59897676D01*
X70109524Y-59897676D02*
X70204762Y-59802438D01*
X70204762Y-59802438D02*
X70347619Y-59754819D01*
X70347619Y-59754819D02*
X70442857Y-59754819D01*
X70442857Y-59754819D02*
X70585714Y-59802438D01*
X70585714Y-59802438D02*
X70633333Y-59850057D01*
X70966667Y-59754819D02*
X71585714Y-59754819D01*
X71585714Y-59754819D02*
X71252381Y-60135771D01*
X71252381Y-60135771D02*
X71395238Y-60135771D01*
X71395238Y-60135771D02*
X71490476Y-60183390D01*
X71490476Y-60183390D02*
X71538095Y-60231009D01*
X71538095Y-60231009D02*
X71585714Y-60326247D01*
X71585714Y-60326247D02*
X71585714Y-60564342D01*
X71585714Y-60564342D02*
X71538095Y-60659580D01*
X71538095Y-60659580D02*
X71490476Y-60707200D01*
X71490476Y-60707200D02*
X71395238Y-60754819D01*
X71395238Y-60754819D02*
X71109524Y-60754819D01*
X71109524Y-60754819D02*
X71014286Y-60707200D01*
X71014286Y-60707200D02*
X70966667Y-60659580D01*
X57366666Y-73344819D02*
X57366666Y-74059104D01*
X57366666Y-74059104D02*
X57319047Y-74201961D01*
X57319047Y-74201961D02*
X57223809Y-74297200D01*
X57223809Y-74297200D02*
X57080952Y-74344819D01*
X57080952Y-74344819D02*
X56985714Y-74344819D01*
X58366666Y-74344819D02*
X57795238Y-74344819D01*
X58080952Y-74344819D02*
X58080952Y-73344819D01*
X58080952Y-73344819D02*
X57985714Y-73487676D01*
X57985714Y-73487676D02*
X57890476Y-73582914D01*
X57890476Y-73582914D02*
X57795238Y-73630533D01*
X81424819Y-43455357D02*
X80948628Y-43788690D01*
X81424819Y-44026785D02*
X80424819Y-44026785D01*
X80424819Y-44026785D02*
X80424819Y-43645833D01*
X80424819Y-43645833D02*
X80472438Y-43550595D01*
X80472438Y-43550595D02*
X80520057Y-43502976D01*
X80520057Y-43502976D02*
X80615295Y-43455357D01*
X80615295Y-43455357D02*
X80758152Y-43455357D01*
X80758152Y-43455357D02*
X80853390Y-43502976D01*
X80853390Y-43502976D02*
X80901009Y-43550595D01*
X80901009Y-43550595D02*
X80948628Y-43645833D01*
X80948628Y-43645833D02*
X80948628Y-44026785D01*
X81424819Y-42502976D02*
X81424819Y-43074404D01*
X81424819Y-42788690D02*
X80424819Y-42788690D01*
X80424819Y-42788690D02*
X80567676Y-42883928D01*
X80567676Y-42883928D02*
X80662914Y-42979166D01*
X80662914Y-42979166D02*
X80710533Y-43074404D01*
X80853390Y-41931547D02*
X80805771Y-42026785D01*
X80805771Y-42026785D02*
X80758152Y-42074404D01*
X80758152Y-42074404D02*
X80662914Y-42122023D01*
X80662914Y-42122023D02*
X80615295Y-42122023D01*
X80615295Y-42122023D02*
X80520057Y-42074404D01*
X80520057Y-42074404D02*
X80472438Y-42026785D01*
X80472438Y-42026785D02*
X80424819Y-41931547D01*
X80424819Y-41931547D02*
X80424819Y-41741071D01*
X80424819Y-41741071D02*
X80472438Y-41645833D01*
X80472438Y-41645833D02*
X80520057Y-41598214D01*
X80520057Y-41598214D02*
X80615295Y-41550595D01*
X80615295Y-41550595D02*
X80662914Y-41550595D01*
X80662914Y-41550595D02*
X80758152Y-41598214D01*
X80758152Y-41598214D02*
X80805771Y-41645833D01*
X80805771Y-41645833D02*
X80853390Y-41741071D01*
X80853390Y-41741071D02*
X80853390Y-41931547D01*
X80853390Y-41931547D02*
X80901009Y-42026785D01*
X80901009Y-42026785D02*
X80948628Y-42074404D01*
X80948628Y-42074404D02*
X81043866Y-42122023D01*
X81043866Y-42122023D02*
X81234342Y-42122023D01*
X81234342Y-42122023D02*
X81329580Y-42074404D01*
X81329580Y-42074404D02*
X81377200Y-42026785D01*
X81377200Y-42026785D02*
X81424819Y-41931547D01*
X81424819Y-41931547D02*
X81424819Y-41741071D01*
X81424819Y-41741071D02*
X81377200Y-41645833D01*
X81377200Y-41645833D02*
X81329580Y-41598214D01*
X81329580Y-41598214D02*
X81234342Y-41550595D01*
X81234342Y-41550595D02*
X81043866Y-41550595D01*
X81043866Y-41550595D02*
X80948628Y-41598214D01*
X80948628Y-41598214D02*
X80901009Y-41645833D01*
X80901009Y-41645833D02*
X80853390Y-41741071D01*
X66224819Y-37942857D02*
X65748628Y-38276190D01*
X66224819Y-38514285D02*
X65224819Y-38514285D01*
X65224819Y-38514285D02*
X65224819Y-38133333D01*
X65224819Y-38133333D02*
X65272438Y-38038095D01*
X65272438Y-38038095D02*
X65320057Y-37990476D01*
X65320057Y-37990476D02*
X65415295Y-37942857D01*
X65415295Y-37942857D02*
X65558152Y-37942857D01*
X65558152Y-37942857D02*
X65653390Y-37990476D01*
X65653390Y-37990476D02*
X65701009Y-38038095D01*
X65701009Y-38038095D02*
X65748628Y-38133333D01*
X65748628Y-38133333D02*
X65748628Y-38514285D01*
X66224819Y-36990476D02*
X66224819Y-37561904D01*
X66224819Y-37276190D02*
X65224819Y-37276190D01*
X65224819Y-37276190D02*
X65367676Y-37371428D01*
X65367676Y-37371428D02*
X65462914Y-37466666D01*
X65462914Y-37466666D02*
X65510533Y-37561904D01*
X65224819Y-36657142D02*
X65224819Y-36038095D01*
X65224819Y-36038095D02*
X65605771Y-36371428D01*
X65605771Y-36371428D02*
X65605771Y-36228571D01*
X65605771Y-36228571D02*
X65653390Y-36133333D01*
X65653390Y-36133333D02*
X65701009Y-36085714D01*
X65701009Y-36085714D02*
X65796247Y-36038095D01*
X65796247Y-36038095D02*
X66034342Y-36038095D01*
X66034342Y-36038095D02*
X66129580Y-36085714D01*
X66129580Y-36085714D02*
X66177200Y-36133333D01*
X66177200Y-36133333D02*
X66224819Y-36228571D01*
X66224819Y-36228571D02*
X66224819Y-36514285D01*
X66224819Y-36514285D02*
X66177200Y-36609523D01*
X66177200Y-36609523D02*
X66129580Y-36657142D01*
X86084819Y-47217857D02*
X85608628Y-47551190D01*
X86084819Y-47789285D02*
X85084819Y-47789285D01*
X85084819Y-47789285D02*
X85084819Y-47408333D01*
X85084819Y-47408333D02*
X85132438Y-47313095D01*
X85132438Y-47313095D02*
X85180057Y-47265476D01*
X85180057Y-47265476D02*
X85275295Y-47217857D01*
X85275295Y-47217857D02*
X85418152Y-47217857D01*
X85418152Y-47217857D02*
X85513390Y-47265476D01*
X85513390Y-47265476D02*
X85561009Y-47313095D01*
X85561009Y-47313095D02*
X85608628Y-47408333D01*
X85608628Y-47408333D02*
X85608628Y-47789285D01*
X86084819Y-46265476D02*
X86084819Y-46836904D01*
X86084819Y-46551190D02*
X85084819Y-46551190D01*
X85084819Y-46551190D02*
X85227676Y-46646428D01*
X85227676Y-46646428D02*
X85322914Y-46741666D01*
X85322914Y-46741666D02*
X85370533Y-46836904D01*
X86084819Y-45313095D02*
X86084819Y-45884523D01*
X86084819Y-45598809D02*
X85084819Y-45598809D01*
X85084819Y-45598809D02*
X85227676Y-45694047D01*
X85227676Y-45694047D02*
X85322914Y-45789285D01*
X85322914Y-45789285D02*
X85370533Y-45884523D01*
X81259580Y-47217857D02*
X81307200Y-47265476D01*
X81307200Y-47265476D02*
X81354819Y-47408333D01*
X81354819Y-47408333D02*
X81354819Y-47503571D01*
X81354819Y-47503571D02*
X81307200Y-47646428D01*
X81307200Y-47646428D02*
X81211961Y-47741666D01*
X81211961Y-47741666D02*
X81116723Y-47789285D01*
X81116723Y-47789285D02*
X80926247Y-47836904D01*
X80926247Y-47836904D02*
X80783390Y-47836904D01*
X80783390Y-47836904D02*
X80592914Y-47789285D01*
X80592914Y-47789285D02*
X80497676Y-47741666D01*
X80497676Y-47741666D02*
X80402438Y-47646428D01*
X80402438Y-47646428D02*
X80354819Y-47503571D01*
X80354819Y-47503571D02*
X80354819Y-47408333D01*
X80354819Y-47408333D02*
X80402438Y-47265476D01*
X80402438Y-47265476D02*
X80450057Y-47217857D01*
X81354819Y-46265476D02*
X81354819Y-46836904D01*
X81354819Y-46551190D02*
X80354819Y-46551190D01*
X80354819Y-46551190D02*
X80497676Y-46646428D01*
X80497676Y-46646428D02*
X80592914Y-46741666D01*
X80592914Y-46741666D02*
X80640533Y-46836904D01*
X80354819Y-45408333D02*
X80354819Y-45598809D01*
X80354819Y-45598809D02*
X80402438Y-45694047D01*
X80402438Y-45694047D02*
X80450057Y-45741666D01*
X80450057Y-45741666D02*
X80592914Y-45836904D01*
X80592914Y-45836904D02*
X80783390Y-45884523D01*
X80783390Y-45884523D02*
X81164342Y-45884523D01*
X81164342Y-45884523D02*
X81259580Y-45836904D01*
X81259580Y-45836904D02*
X81307200Y-45789285D01*
X81307200Y-45789285D02*
X81354819Y-45694047D01*
X81354819Y-45694047D02*
X81354819Y-45503571D01*
X81354819Y-45503571D02*
X81307200Y-45408333D01*
X81307200Y-45408333D02*
X81259580Y-45360714D01*
X81259580Y-45360714D02*
X81164342Y-45313095D01*
X81164342Y-45313095D02*
X80926247Y-45313095D01*
X80926247Y-45313095D02*
X80831009Y-45360714D01*
X80831009Y-45360714D02*
X80783390Y-45408333D01*
X80783390Y-45408333D02*
X80735771Y-45503571D01*
X80735771Y-45503571D02*
X80735771Y-45694047D01*
X80735771Y-45694047D02*
X80783390Y-45789285D01*
X80783390Y-45789285D02*
X80831009Y-45836904D01*
X80831009Y-45836904D02*
X80926247Y-45884523D01*
X72554819Y-34642857D02*
X72078628Y-34976190D01*
X72554819Y-35214285D02*
X71554819Y-35214285D01*
X71554819Y-35214285D02*
X71554819Y-34833333D01*
X71554819Y-34833333D02*
X71602438Y-34738095D01*
X71602438Y-34738095D02*
X71650057Y-34690476D01*
X71650057Y-34690476D02*
X71745295Y-34642857D01*
X71745295Y-34642857D02*
X71888152Y-34642857D01*
X71888152Y-34642857D02*
X71983390Y-34690476D01*
X71983390Y-34690476D02*
X72031009Y-34738095D01*
X72031009Y-34738095D02*
X72078628Y-34833333D01*
X72078628Y-34833333D02*
X72078628Y-35214285D01*
X72554819Y-33690476D02*
X72554819Y-34261904D01*
X72554819Y-33976190D02*
X71554819Y-33976190D01*
X71554819Y-33976190D02*
X71697676Y-34071428D01*
X71697676Y-34071428D02*
X71792914Y-34166666D01*
X71792914Y-34166666D02*
X71840533Y-34261904D01*
X71554819Y-32785714D02*
X71554819Y-33261904D01*
X71554819Y-33261904D02*
X72031009Y-33309523D01*
X72031009Y-33309523D02*
X71983390Y-33261904D01*
X71983390Y-33261904D02*
X71935771Y-33166666D01*
X71935771Y-33166666D02*
X71935771Y-32928571D01*
X71935771Y-32928571D02*
X71983390Y-32833333D01*
X71983390Y-32833333D02*
X72031009Y-32785714D01*
X72031009Y-32785714D02*
X72126247Y-32738095D01*
X72126247Y-32738095D02*
X72364342Y-32738095D01*
X72364342Y-32738095D02*
X72459580Y-32785714D01*
X72459580Y-32785714D02*
X72507200Y-32833333D01*
X72507200Y-32833333D02*
X72554819Y-32928571D01*
X72554819Y-32928571D02*
X72554819Y-33166666D01*
X72554819Y-33166666D02*
X72507200Y-33261904D01*
X72507200Y-33261904D02*
X72459580Y-33309523D01*
X54386666Y-50454819D02*
X54386666Y-51169104D01*
X54386666Y-51169104D02*
X54339047Y-51311961D01*
X54339047Y-51311961D02*
X54243809Y-51407200D01*
X54243809Y-51407200D02*
X54100952Y-51454819D01*
X54100952Y-51454819D02*
X54005714Y-51454819D01*
X55005714Y-50883390D02*
X54910476Y-50835771D01*
X54910476Y-50835771D02*
X54862857Y-50788152D01*
X54862857Y-50788152D02*
X54815238Y-50692914D01*
X54815238Y-50692914D02*
X54815238Y-50645295D01*
X54815238Y-50645295D02*
X54862857Y-50550057D01*
X54862857Y-50550057D02*
X54910476Y-50502438D01*
X54910476Y-50502438D02*
X55005714Y-50454819D01*
X55005714Y-50454819D02*
X55196190Y-50454819D01*
X55196190Y-50454819D02*
X55291428Y-50502438D01*
X55291428Y-50502438D02*
X55339047Y-50550057D01*
X55339047Y-50550057D02*
X55386666Y-50645295D01*
X55386666Y-50645295D02*
X55386666Y-50692914D01*
X55386666Y-50692914D02*
X55339047Y-50788152D01*
X55339047Y-50788152D02*
X55291428Y-50835771D01*
X55291428Y-50835771D02*
X55196190Y-50883390D01*
X55196190Y-50883390D02*
X55005714Y-50883390D01*
X55005714Y-50883390D02*
X54910476Y-50931009D01*
X54910476Y-50931009D02*
X54862857Y-50978628D01*
X54862857Y-50978628D02*
X54815238Y-51073866D01*
X54815238Y-51073866D02*
X54815238Y-51264342D01*
X54815238Y-51264342D02*
X54862857Y-51359580D01*
X54862857Y-51359580D02*
X54910476Y-51407200D01*
X54910476Y-51407200D02*
X55005714Y-51454819D01*
X55005714Y-51454819D02*
X55196190Y-51454819D01*
X55196190Y-51454819D02*
X55291428Y-51407200D01*
X55291428Y-51407200D02*
X55339047Y-51359580D01*
X55339047Y-51359580D02*
X55386666Y-51264342D01*
X55386666Y-51264342D02*
X55386666Y-51073866D01*
X55386666Y-51073866D02*
X55339047Y-50978628D01*
X55339047Y-50978628D02*
X55291428Y-50931009D01*
X55291428Y-50931009D02*
X55196190Y-50883390D01*
X63154819Y-93542857D02*
X62678628Y-93876190D01*
X63154819Y-94114285D02*
X62154819Y-94114285D01*
X62154819Y-94114285D02*
X62154819Y-93733333D01*
X62154819Y-93733333D02*
X62202438Y-93638095D01*
X62202438Y-93638095D02*
X62250057Y-93590476D01*
X62250057Y-93590476D02*
X62345295Y-93542857D01*
X62345295Y-93542857D02*
X62488152Y-93542857D01*
X62488152Y-93542857D02*
X62583390Y-93590476D01*
X62583390Y-93590476D02*
X62631009Y-93638095D01*
X62631009Y-93638095D02*
X62678628Y-93733333D01*
X62678628Y-93733333D02*
X62678628Y-94114285D01*
X62250057Y-93161904D02*
X62202438Y-93114285D01*
X62202438Y-93114285D02*
X62154819Y-93019047D01*
X62154819Y-93019047D02*
X62154819Y-92780952D01*
X62154819Y-92780952D02*
X62202438Y-92685714D01*
X62202438Y-92685714D02*
X62250057Y-92638095D01*
X62250057Y-92638095D02*
X62345295Y-92590476D01*
X62345295Y-92590476D02*
X62440533Y-92590476D01*
X62440533Y-92590476D02*
X62583390Y-92638095D01*
X62583390Y-92638095D02*
X63154819Y-93209523D01*
X63154819Y-93209523D02*
X63154819Y-92590476D01*
X62250057Y-92209523D02*
X62202438Y-92161904D01*
X62202438Y-92161904D02*
X62154819Y-92066666D01*
X62154819Y-92066666D02*
X62154819Y-91828571D01*
X62154819Y-91828571D02*
X62202438Y-91733333D01*
X62202438Y-91733333D02*
X62250057Y-91685714D01*
X62250057Y-91685714D02*
X62345295Y-91638095D01*
X62345295Y-91638095D02*
X62440533Y-91638095D01*
X62440533Y-91638095D02*
X62583390Y-91685714D01*
X62583390Y-91685714D02*
X63154819Y-92257142D01*
X63154819Y-92257142D02*
X63154819Y-91638095D01*
X82590476Y-27859819D02*
X82590476Y-28574104D01*
X82590476Y-28574104D02*
X82542857Y-28716961D01*
X82542857Y-28716961D02*
X82447619Y-28812200D01*
X82447619Y-28812200D02*
X82304762Y-28859819D01*
X82304762Y-28859819D02*
X82209524Y-28859819D01*
X83590476Y-28859819D02*
X83019048Y-28859819D01*
X83304762Y-28859819D02*
X83304762Y-27859819D01*
X83304762Y-27859819D02*
X83209524Y-28002676D01*
X83209524Y-28002676D02*
X83114286Y-28097914D01*
X83114286Y-28097914D02*
X83019048Y-28145533D01*
X84209524Y-27859819D02*
X84304762Y-27859819D01*
X84304762Y-27859819D02*
X84400000Y-27907438D01*
X84400000Y-27907438D02*
X84447619Y-27955057D01*
X84447619Y-27955057D02*
X84495238Y-28050295D01*
X84495238Y-28050295D02*
X84542857Y-28240771D01*
X84542857Y-28240771D02*
X84542857Y-28478866D01*
X84542857Y-28478866D02*
X84495238Y-28669342D01*
X84495238Y-28669342D02*
X84447619Y-28764580D01*
X84447619Y-28764580D02*
X84400000Y-28812200D01*
X84400000Y-28812200D02*
X84304762Y-28859819D01*
X84304762Y-28859819D02*
X84209524Y-28859819D01*
X84209524Y-28859819D02*
X84114286Y-28812200D01*
X84114286Y-28812200D02*
X84066667Y-28764580D01*
X84066667Y-28764580D02*
X84019048Y-28669342D01*
X84019048Y-28669342D02*
X83971429Y-28478866D01*
X83971429Y-28478866D02*
X83971429Y-28240771D01*
X83971429Y-28240771D02*
X84019048Y-28050295D01*
X84019048Y-28050295D02*
X84066667Y-27955057D01*
X84066667Y-27955057D02*
X84114286Y-27907438D01*
X84114286Y-27907438D02*
X84209524Y-27859819D01*
X59266666Y-98354819D02*
X59266666Y-99069104D01*
X59266666Y-99069104D02*
X59219047Y-99211961D01*
X59219047Y-99211961D02*
X59123809Y-99307200D01*
X59123809Y-99307200D02*
X58980952Y-99354819D01*
X58980952Y-99354819D02*
X58885714Y-99354819D01*
X60219047Y-98354819D02*
X59742857Y-98354819D01*
X59742857Y-98354819D02*
X59695238Y-98831009D01*
X59695238Y-98831009D02*
X59742857Y-98783390D01*
X59742857Y-98783390D02*
X59838095Y-98735771D01*
X59838095Y-98735771D02*
X60076190Y-98735771D01*
X60076190Y-98735771D02*
X60171428Y-98783390D01*
X60171428Y-98783390D02*
X60219047Y-98831009D01*
X60219047Y-98831009D02*
X60266666Y-98926247D01*
X60266666Y-98926247D02*
X60266666Y-99164342D01*
X60266666Y-99164342D02*
X60219047Y-99259580D01*
X60219047Y-99259580D02*
X60171428Y-99307200D01*
X60171428Y-99307200D02*
X60076190Y-99354819D01*
X60076190Y-99354819D02*
X59838095Y-99354819D01*
X59838095Y-99354819D02*
X59742857Y-99307200D01*
X59742857Y-99307200D02*
X59695238Y-99259580D01*
X73133333Y-53959580D02*
X73085714Y-54007200D01*
X73085714Y-54007200D02*
X72942857Y-54054819D01*
X72942857Y-54054819D02*
X72847619Y-54054819D01*
X72847619Y-54054819D02*
X72704762Y-54007200D01*
X72704762Y-54007200D02*
X72609524Y-53911961D01*
X72609524Y-53911961D02*
X72561905Y-53816723D01*
X72561905Y-53816723D02*
X72514286Y-53626247D01*
X72514286Y-53626247D02*
X72514286Y-53483390D01*
X72514286Y-53483390D02*
X72561905Y-53292914D01*
X72561905Y-53292914D02*
X72609524Y-53197676D01*
X72609524Y-53197676D02*
X72704762Y-53102438D01*
X72704762Y-53102438D02*
X72847619Y-53054819D01*
X72847619Y-53054819D02*
X72942857Y-53054819D01*
X72942857Y-53054819D02*
X73085714Y-53102438D01*
X73085714Y-53102438D02*
X73133333Y-53150057D01*
X73704762Y-53483390D02*
X73609524Y-53435771D01*
X73609524Y-53435771D02*
X73561905Y-53388152D01*
X73561905Y-53388152D02*
X73514286Y-53292914D01*
X73514286Y-53292914D02*
X73514286Y-53245295D01*
X73514286Y-53245295D02*
X73561905Y-53150057D01*
X73561905Y-53150057D02*
X73609524Y-53102438D01*
X73609524Y-53102438D02*
X73704762Y-53054819D01*
X73704762Y-53054819D02*
X73895238Y-53054819D01*
X73895238Y-53054819D02*
X73990476Y-53102438D01*
X73990476Y-53102438D02*
X74038095Y-53150057D01*
X74038095Y-53150057D02*
X74085714Y-53245295D01*
X74085714Y-53245295D02*
X74085714Y-53292914D01*
X74085714Y-53292914D02*
X74038095Y-53388152D01*
X74038095Y-53388152D02*
X73990476Y-53435771D01*
X73990476Y-53435771D02*
X73895238Y-53483390D01*
X73895238Y-53483390D02*
X73704762Y-53483390D01*
X73704762Y-53483390D02*
X73609524Y-53531009D01*
X73609524Y-53531009D02*
X73561905Y-53578628D01*
X73561905Y-53578628D02*
X73514286Y-53673866D01*
X73514286Y-53673866D02*
X73514286Y-53864342D01*
X73514286Y-53864342D02*
X73561905Y-53959580D01*
X73561905Y-53959580D02*
X73609524Y-54007200D01*
X73609524Y-54007200D02*
X73704762Y-54054819D01*
X73704762Y-54054819D02*
X73895238Y-54054819D01*
X73895238Y-54054819D02*
X73990476Y-54007200D01*
X73990476Y-54007200D02*
X74038095Y-53959580D01*
X74038095Y-53959580D02*
X74085714Y-53864342D01*
X74085714Y-53864342D02*
X74085714Y-53673866D01*
X74085714Y-53673866D02*
X74038095Y-53578628D01*
X74038095Y-53578628D02*
X73990476Y-53531009D01*
X73990476Y-53531009D02*
X73895238Y-53483390D01*
X60454819Y-93642857D02*
X59978628Y-93976190D01*
X60454819Y-94214285D02*
X59454819Y-94214285D01*
X59454819Y-94214285D02*
X59454819Y-93833333D01*
X59454819Y-93833333D02*
X59502438Y-93738095D01*
X59502438Y-93738095D02*
X59550057Y-93690476D01*
X59550057Y-93690476D02*
X59645295Y-93642857D01*
X59645295Y-93642857D02*
X59788152Y-93642857D01*
X59788152Y-93642857D02*
X59883390Y-93690476D01*
X59883390Y-93690476D02*
X59931009Y-93738095D01*
X59931009Y-93738095D02*
X59978628Y-93833333D01*
X59978628Y-93833333D02*
X59978628Y-94214285D01*
X59550057Y-93261904D02*
X59502438Y-93214285D01*
X59502438Y-93214285D02*
X59454819Y-93119047D01*
X59454819Y-93119047D02*
X59454819Y-92880952D01*
X59454819Y-92880952D02*
X59502438Y-92785714D01*
X59502438Y-92785714D02*
X59550057Y-92738095D01*
X59550057Y-92738095D02*
X59645295Y-92690476D01*
X59645295Y-92690476D02*
X59740533Y-92690476D01*
X59740533Y-92690476D02*
X59883390Y-92738095D01*
X59883390Y-92738095D02*
X60454819Y-93309523D01*
X60454819Y-93309523D02*
X60454819Y-92690476D01*
X60454819Y-91738095D02*
X60454819Y-92309523D01*
X60454819Y-92023809D02*
X59454819Y-92023809D01*
X59454819Y-92023809D02*
X59597676Y-92119047D01*
X59597676Y-92119047D02*
X59692914Y-92214285D01*
X59692914Y-92214285D02*
X59740533Y-92309523D01*
X66534580Y-27342857D02*
X66582200Y-27390476D01*
X66582200Y-27390476D02*
X66629819Y-27533333D01*
X66629819Y-27533333D02*
X66629819Y-27628571D01*
X66629819Y-27628571D02*
X66582200Y-27771428D01*
X66582200Y-27771428D02*
X66486961Y-27866666D01*
X66486961Y-27866666D02*
X66391723Y-27914285D01*
X66391723Y-27914285D02*
X66201247Y-27961904D01*
X66201247Y-27961904D02*
X66058390Y-27961904D01*
X66058390Y-27961904D02*
X65867914Y-27914285D01*
X65867914Y-27914285D02*
X65772676Y-27866666D01*
X65772676Y-27866666D02*
X65677438Y-27771428D01*
X65677438Y-27771428D02*
X65629819Y-27628571D01*
X65629819Y-27628571D02*
X65629819Y-27533333D01*
X65629819Y-27533333D02*
X65677438Y-27390476D01*
X65677438Y-27390476D02*
X65725057Y-27342857D01*
X66629819Y-26390476D02*
X66629819Y-26961904D01*
X66629819Y-26676190D02*
X65629819Y-26676190D01*
X65629819Y-26676190D02*
X65772676Y-26771428D01*
X65772676Y-26771428D02*
X65867914Y-26866666D01*
X65867914Y-26866666D02*
X65915533Y-26961904D01*
X65963152Y-25533333D02*
X66629819Y-25533333D01*
X65582200Y-25771428D02*
X66296485Y-26009523D01*
X66296485Y-26009523D02*
X66296485Y-25390476D01*
X66530833Y-58529580D02*
X66483214Y-58577200D01*
X66483214Y-58577200D02*
X66340357Y-58624819D01*
X66340357Y-58624819D02*
X66245119Y-58624819D01*
X66245119Y-58624819D02*
X66102262Y-58577200D01*
X66102262Y-58577200D02*
X66007024Y-58481961D01*
X66007024Y-58481961D02*
X65959405Y-58386723D01*
X65959405Y-58386723D02*
X65911786Y-58196247D01*
X65911786Y-58196247D02*
X65911786Y-58053390D01*
X65911786Y-58053390D02*
X65959405Y-57862914D01*
X65959405Y-57862914D02*
X66007024Y-57767676D01*
X66007024Y-57767676D02*
X66102262Y-57672438D01*
X66102262Y-57672438D02*
X66245119Y-57624819D01*
X66245119Y-57624819D02*
X66340357Y-57624819D01*
X66340357Y-57624819D02*
X66483214Y-57672438D01*
X66483214Y-57672438D02*
X66530833Y-57720057D01*
X67387976Y-57958152D02*
X67387976Y-58624819D01*
X67149881Y-57577200D02*
X66911786Y-58291485D01*
X66911786Y-58291485D02*
X67530833Y-58291485D01*
D11*
%TO.C,SW1*%
X82100000Y-32500000D02*
X82100000Y-38900000D01*
X82100000Y-38900000D02*
X83300000Y-38900000D01*
X83300000Y-32500000D02*
X82100000Y-32500000D01*
X84900000Y-38900000D02*
X86100000Y-38900000D01*
X86100000Y-32500000D02*
X84900000Y-32500000D01*
X86100000Y-38900000D02*
X86100000Y-32500000D01*
%TO.C,C5*%
X66765580Y-53690000D02*
X66484420Y-53690000D01*
X66765580Y-54710000D02*
X66484420Y-54710000D01*
%TO.C,R16*%
X75777500Y-33762742D02*
X75777500Y-34237258D01*
X76822500Y-33762742D02*
X76822500Y-34237258D01*
%TO.C,C6*%
X66765580Y-51180000D02*
X66484420Y-51180000D01*
X66765580Y-52200000D02*
X66484420Y-52200000D01*
%TO.C,C15*%
X72990000Y-37415580D02*
X72990000Y-37134420D01*
X74010000Y-37415580D02*
X74010000Y-37134420D01*
%TO.C,C2*%
X75584420Y-59890000D02*
X75865580Y-59890000D01*
X75584420Y-60910000D02*
X75865580Y-60910000D01*
D12*
%TO.C,U1*%
X66170400Y-75745400D02*
X66170400Y-76228000D01*
X66170400Y-85372000D02*
X66170400Y-85854600D01*
X66170400Y-85854600D02*
X66653000Y-85854600D01*
X66653000Y-75745400D02*
X66170400Y-75745400D01*
X75797000Y-85854600D02*
X76279600Y-85854600D01*
X76279600Y-75745400D02*
X75797000Y-75745400D01*
X76279600Y-76228000D02*
X76279600Y-75745400D01*
X76279600Y-85854600D02*
X76279600Y-85372000D01*
D11*
%TO.C,C13*%
X69890000Y-37440580D02*
X69890000Y-37159420D01*
X70910000Y-37440580D02*
X70910000Y-37159420D01*
%TO.C,R1*%
X80137258Y-35677500D02*
X79662742Y-35677500D01*
X80137258Y-36722500D02*
X79662742Y-36722500D01*
%TO.C,C7*%
X66765580Y-48670000D02*
X66484420Y-48670000D01*
X66765580Y-49690000D02*
X66484420Y-49690000D01*
%TO.C,L2*%
X69700000Y-40900000D02*
X77100000Y-40900000D01*
X69700000Y-43200000D02*
X69700000Y-40900000D01*
X69700000Y-48300000D02*
X69700000Y-46000000D01*
X77100000Y-40900000D02*
X77100000Y-43200000D01*
X77100000Y-46000000D02*
X77100000Y-48300000D01*
X77100000Y-48300000D02*
X69700000Y-48300000D01*
%TO.C,SW2*%
X81900000Y-50475000D02*
X81900000Y-56875000D01*
X81900000Y-56875000D02*
X83100000Y-56875000D01*
X83100000Y-50475000D02*
X81900000Y-50475000D01*
X84700000Y-56875000D02*
X85900000Y-56875000D01*
X85900000Y-50475000D02*
X84700000Y-50475000D01*
X85900000Y-56875000D02*
X85900000Y-50475000D01*
%TO.C,U3*%
X70140000Y-26400000D02*
X70140000Y-24450000D01*
X70140000Y-26400000D02*
X70140000Y-28350000D01*
X75260000Y-26400000D02*
X75260000Y-24450000D01*
X75260000Y-26400000D02*
X75260000Y-28350000D01*
X70235000Y-29100000D02*
X69905000Y-29340000D01*
X69905000Y-28860000D01*
X70235000Y-29100000D01*
G36*
X70235000Y-29100000D02*
G01*
X69905000Y-29340000D01*
X69905000Y-28860000D01*
X70235000Y-29100000D01*
G37*
%TO.C,J2*%
X43470000Y-95110000D02*
X43470000Y-56950000D01*
X43470000Y-97710000D02*
X43470000Y-96380000D01*
X44800000Y-97710000D02*
X43470000Y-97710000D01*
X46130000Y-56950000D02*
X43470000Y-56950000D01*
X46130000Y-95110000D02*
X43470000Y-95110000D01*
X46130000Y-95110000D02*
X46130000Y-56950000D01*
%TO.C,R17*%
X75777500Y-37537258D02*
X75777500Y-37062742D01*
X76822500Y-37537258D02*
X76822500Y-37062742D01*
%TO.C,R12*%
X69877500Y-34312258D02*
X69877500Y-33837742D01*
X70922500Y-34312258D02*
X70922500Y-33837742D01*
%TO.C,R20*%
X53477500Y-92662742D02*
X53477500Y-93137258D01*
X54522500Y-92662742D02*
X54522500Y-93137258D01*
%TO.C,J7*%
X69550000Y-98730000D02*
X69550000Y-97400000D01*
X70880000Y-98730000D02*
X69550000Y-98730000D01*
X72150000Y-96070000D02*
X79830000Y-96070000D01*
X72150000Y-98730000D02*
X72150000Y-96070000D01*
X72150000Y-98730000D02*
X79830000Y-98730000D01*
X79830000Y-98730000D02*
X79830000Y-96070000D01*
%TO.C,C1*%
X80115580Y-32790000D02*
X79834420Y-32790000D01*
X80115580Y-33810000D02*
X79834420Y-33810000D01*
%TO.C,Y1*%
X64100000Y-61450000D02*
X64100000Y-66550000D01*
X64100000Y-66550000D02*
X76700000Y-66550000D01*
X76700000Y-61450000D02*
X64100000Y-61450000D01*
%TO.C,R14*%
X76377500Y-24837258D02*
X76377500Y-24362742D01*
X77422500Y-24837258D02*
X77422500Y-24362742D01*
%TO.C,D4*%
X83465000Y-41327500D02*
X83465000Y-43612500D01*
X84935000Y-41327500D02*
X83465000Y-41327500D01*
X84935000Y-43612500D02*
X84935000Y-41327500D01*
%TO.C,D3*%
X65350000Y-40990000D02*
X65350000Y-46500000D01*
X68650000Y-40990000D02*
X65350000Y-40990000D01*
X68650000Y-40990000D02*
X68650000Y-46500000D01*
%TO.C,C3*%
X67959420Y-59790000D02*
X68240580Y-59790000D01*
X67959420Y-60810000D02*
X68240580Y-60810000D01*
%TO.C,J1*%
X56370000Y-77930000D02*
X56370000Y-90690000D01*
X56370000Y-77930000D02*
X59030000Y-77930000D01*
X56370000Y-90690000D02*
X59030000Y-90690000D01*
X57700000Y-75330000D02*
X59030000Y-75330000D01*
X59030000Y-75330000D02*
X59030000Y-76660000D01*
X59030000Y-77930000D02*
X59030000Y-90690000D01*
%TO.C,R18*%
X81877500Y-43049758D02*
X81877500Y-42575242D01*
X82922500Y-43049758D02*
X82922500Y-42575242D01*
%TO.C,R13*%
X66677500Y-37537258D02*
X66677500Y-37062742D01*
X67722500Y-37537258D02*
X67722500Y-37062742D01*
%TO.C,R11*%
X83677500Y-46337742D02*
X83677500Y-46812258D01*
X84722500Y-46337742D02*
X84722500Y-46812258D01*
%TO.C,C16*%
X81790000Y-46434420D02*
X81790000Y-46715580D01*
X82810000Y-46434420D02*
X82810000Y-46715580D01*
%TO.C,R15*%
X72977500Y-34262258D02*
X72977500Y-33787742D01*
X74022500Y-34262258D02*
X74022500Y-33787742D01*
%TO.C,J8*%
X48770000Y-54730000D02*
X48770000Y-53400000D01*
X50100000Y-54730000D02*
X48770000Y-54730000D01*
X51370000Y-52070000D02*
X59050000Y-52070000D01*
X51370000Y-54730000D02*
X51370000Y-52070000D01*
X51370000Y-54730000D02*
X59050000Y-54730000D01*
X59050000Y-54730000D02*
X59050000Y-52070000D01*
%TO.C,R22*%
X63577500Y-93137258D02*
X63577500Y-92662742D01*
X64622500Y-93137258D02*
X64622500Y-92662742D01*
%TO.C,J10*%
X82070000Y-24805000D02*
X82070000Y-22205000D01*
X84730000Y-22205000D02*
X82070000Y-22205000D01*
X84730000Y-24805000D02*
X82070000Y-24805000D01*
X84730000Y-24805000D02*
X84730000Y-22205000D01*
X84730000Y-26075000D02*
X84730000Y-27405000D01*
X84730000Y-27405000D02*
X83400000Y-27405000D01*
%TO.C,J5*%
X52590000Y-98007500D02*
X52590000Y-96677500D01*
X53920000Y-98007500D02*
X52590000Y-98007500D01*
X55190000Y-95347500D02*
X65410000Y-95347500D01*
X55190000Y-98007500D02*
X55190000Y-95347500D01*
X55190000Y-98007500D02*
X65410000Y-98007500D01*
X65410000Y-98007500D02*
X65410000Y-95347500D01*
%TO.C,C8*%
X69650000Y-55860000D02*
X77710000Y-55860000D01*
X77710000Y-51340000D02*
X69650000Y-51340000D01*
X77710000Y-55860000D02*
X77710000Y-51340000D01*
%TO.C,R21*%
X60877500Y-93237258D02*
X60877500Y-92762742D01*
X61922500Y-93237258D02*
X61922500Y-92762742D01*
%TO.C,C14*%
X67290000Y-26459420D02*
X67290000Y-26740580D01*
X68310000Y-26459420D02*
X68310000Y-26740580D01*
%TO.C,C4*%
X66838080Y-56230000D02*
X66556920Y-56230000D01*
X66838080Y-57250000D02*
X66556920Y-57250000D01*
%TD*%
D13*
X42100000Y-20200000D02*
X87100000Y-20200000D01*
X87100000Y-100200000D01*
X42100000Y-100200000D01*
X42100000Y-20200000D01*
M02*
