%TF.GenerationSoftware,KiCad,Pcbnew,8.0.7*%
%TF.CreationDate,2025-03-07T17:05:54+07:00*%
%TF.ProjectId,BTL_NGUYENTRUNG,42544c5f-4e47-4555-9945-4e5452554e47,rev?*%
%TF.SameCoordinates,Original*%
%TF.FileFunction,Soldermask,Top*%
%TF.FilePolarity,Negative*%
%FSLAX46Y46*%
G04 Gerber Fmt 4.6, Leading zero omitted, Abs format (unit mm)*
G04 Created by KiCad (PCBNEW 8.0.7) date 2025-03-07 17:05:54*
%MOMM*%
%LPD*%
G01*
G04 APERTURE LIST*
G04 Aperture macros list*
%AMRoundRect*
0 Rectangle with rounded corners*
0 $1 Rounding radius*
0 $2 $3 $4 $5 $6 $7 $8 $9 X,Y pos of 4 corners*
0 Add a 4 corners polygon primitive as box body*
4,1,4,$2,$3,$4,$5,$6,$7,$8,$9,$2,$3,0*
0 Add four circle primitives for the rounded corners*
1,1,$1+$1,$2,$3*
1,1,$1+$1,$4,$5*
1,1,$1+$1,$6,$7*
1,1,$1+$1,$8,$9*
0 Add four rect primitives between the rounded corners*
20,1,$1+$1,$2,$3,$4,$5,0*
20,1,$1+$1,$4,$5,$6,$7,0*
20,1,$1+$1,$6,$7,$8,$9,0*
20,1,$1+$1,$8,$9,$2,$3,0*%
G04 Aperture macros list end*
%ADD10R,1.000000X1.250000*%
%ADD11RoundRect,0.225000X0.225000X0.250000X-0.225000X0.250000X-0.225000X-0.250000X0.225000X-0.250000X0*%
%ADD12RoundRect,0.200000X-0.275000X0.200000X-0.275000X-0.200000X0.275000X-0.200000X0.275000X0.200000X0*%
%ADD13RoundRect,0.225000X0.250000X-0.225000X0.250000X0.225000X-0.250000X0.225000X-0.250000X-0.225000X0*%
%ADD14RoundRect,0.225000X-0.225000X-0.250000X0.225000X-0.250000X0.225000X0.250000X-0.225000X0.250000X0*%
%ADD15RoundRect,0.102000X-0.241300X-0.736600X0.241300X-0.736600X0.241300X0.736600X-0.241300X0.736600X0*%
%ADD16RoundRect,0.102000X-0.736600X0.241300X-0.736600X-0.241300X0.736600X-0.241300X0.736600X0.241300X0*%
%ADD17RoundRect,0.200000X0.200000X0.275000X-0.200000X0.275000X-0.200000X-0.275000X0.200000X-0.275000X0*%
%ADD18R,1.500000X2.200000*%
%ADD19RoundRect,0.150000X0.150000X-0.825000X0.150000X0.825000X-0.150000X0.825000X-0.150000X-0.825000X0*%
%ADD20R,3.000000X2.290000*%
%ADD21R,1.700000X1.700000*%
%ADD22O,1.700000X1.700000*%
%ADD23RoundRect,0.200000X0.275000X-0.200000X0.275000X0.200000X-0.275000X0.200000X-0.275000X-0.200000X0*%
%ADD24R,4.500000X2.000000*%
%ADD25RoundRect,0.218750X-0.256250X0.218750X-0.256250X-0.218750X0.256250X-0.218750X0.256250X0.218750X0*%
%ADD26RoundRect,0.250000X-0.650000X1.000000X-0.650000X-1.000000X0.650000X-1.000000X0.650000X1.000000X0*%
%ADD27RoundRect,0.225000X-0.250000X0.225000X-0.250000X-0.225000X0.250000X-0.225000X0.250000X0.225000X0*%
%ADD28RoundRect,0.250000X0.787500X1.025000X-0.787500X1.025000X-0.787500X-1.025000X0.787500X-1.025000X0*%
%TA.AperFunction,Profile*%
%ADD29C,0.200000*%
%TD*%
G04 APERTURE END LIST*
D10*
%TO.C,SW1*%
X84100000Y-39575000D03*
X84100000Y-31825000D03*
%TD*%
D11*
%TO.C,C5*%
X67400000Y-54200000D03*
X65850000Y-54200000D03*
%TD*%
D12*
%TO.C,R16*%
X76300000Y-33175000D03*
X76300000Y-34825000D03*
%TD*%
D11*
%TO.C,C6*%
X67400000Y-51690000D03*
X65850000Y-51690000D03*
%TD*%
D13*
%TO.C,C15*%
X73500000Y-38050000D03*
X73500000Y-36500000D03*
%TD*%
D14*
%TO.C,C2*%
X74950000Y-60400000D03*
X76500000Y-60400000D03*
%TD*%
D15*
%TO.C,U1*%
X67237200Y-86540400D03*
X68024600Y-86540400D03*
X68837400Y-86540400D03*
X69624800Y-86540400D03*
X70437600Y-86540400D03*
X71225000Y-86540400D03*
X72012400Y-86540400D03*
X72825200Y-86540400D03*
X73612600Y-86540400D03*
X74425400Y-86540400D03*
X75212800Y-86540400D03*
D16*
X76965400Y-84787800D03*
X76965400Y-84000400D03*
X76965400Y-83187600D03*
X76965400Y-82400200D03*
X76965400Y-81587400D03*
X76965400Y-80800000D03*
X76965400Y-80012600D03*
X76965400Y-79199800D03*
X76965400Y-78412400D03*
X76965400Y-77599600D03*
X76965400Y-76812200D03*
D15*
X75212800Y-75059600D03*
X74425400Y-75059600D03*
X73612600Y-75059600D03*
X72825200Y-75059600D03*
X72012400Y-75059600D03*
X71225000Y-75059600D03*
X70437600Y-75059600D03*
X69624800Y-75059600D03*
X68837400Y-75059600D03*
X68024600Y-75059600D03*
X67237200Y-75059600D03*
D16*
X65484600Y-76812200D03*
X65484600Y-77599600D03*
X65484600Y-78412400D03*
X65484600Y-79199800D03*
X65484600Y-80012600D03*
X65484600Y-80800000D03*
X65484600Y-81587400D03*
X65484600Y-82400200D03*
X65484600Y-83187600D03*
X65484600Y-84000400D03*
X65484600Y-84787800D03*
%TD*%
D13*
%TO.C,C13*%
X70400000Y-38075000D03*
X70400000Y-36525000D03*
%TD*%
D17*
%TO.C,R1*%
X80725000Y-36200000D03*
X79075000Y-36200000D03*
%TD*%
D11*
%TO.C,C7*%
X67400000Y-49180000D03*
X65850000Y-49180000D03*
%TD*%
D18*
%TO.C,L2*%
X70200000Y-44600000D03*
X76600000Y-44600000D03*
%TD*%
D10*
%TO.C,SW2*%
X83900000Y-57550000D03*
X83900000Y-49800000D03*
%TD*%
D19*
%TO.C,U3*%
X70795000Y-28875000D03*
X72065000Y-28875000D03*
X73335000Y-28875000D03*
X74605000Y-28875000D03*
X74605000Y-23925000D03*
X73335000Y-23925000D03*
X72065000Y-23925000D03*
X70795000Y-23925000D03*
D20*
X72700000Y-26400000D03*
%TD*%
D21*
%TO.C,J2*%
X44800000Y-96380000D03*
D22*
X44800000Y-93840000D03*
X44800000Y-91300000D03*
X44800000Y-88760000D03*
X44800000Y-86220000D03*
X44800000Y-83680000D03*
X44800000Y-81140000D03*
X44800000Y-78600000D03*
X44800000Y-76060000D03*
X44800000Y-73520000D03*
X44800000Y-70980000D03*
X44800000Y-68440000D03*
X44800000Y-65900000D03*
X44800000Y-63360000D03*
X44800000Y-60820000D03*
X44800000Y-58280000D03*
%TD*%
D23*
%TO.C,R17*%
X76300000Y-38125000D03*
X76300000Y-36475000D03*
%TD*%
%TO.C,R12*%
X70400000Y-34900000D03*
X70400000Y-33250000D03*
%TD*%
D12*
%TO.C,R20*%
X54000000Y-92075000D03*
X54000000Y-93725000D03*
%TD*%
D21*
%TO.C,J7*%
X70880000Y-97400000D03*
D22*
X73420000Y-97400000D03*
X75960000Y-97400000D03*
X78500000Y-97400000D03*
%TD*%
D11*
%TO.C,C1*%
X80750000Y-33300000D03*
X79200000Y-33300000D03*
%TD*%
D24*
%TO.C,Y1*%
X66550000Y-64000000D03*
X75050000Y-64000000D03*
%TD*%
D23*
%TO.C,R14*%
X76900000Y-25425000D03*
X76900000Y-23775000D03*
%TD*%
D25*
%TO.C,D4*%
X84200000Y-42025000D03*
X84200000Y-43600000D03*
%TD*%
D26*
%TO.C,D3*%
X67000000Y-42500000D03*
X67000000Y-46500000D03*
%TD*%
D14*
%TO.C,C3*%
X67325000Y-60300000D03*
X68875000Y-60300000D03*
%TD*%
D21*
%TO.C,J1*%
X57700000Y-76660000D03*
D22*
X57700000Y-79200000D03*
X57700000Y-81740000D03*
X57700000Y-84280000D03*
X57700000Y-86820000D03*
X57700000Y-89360000D03*
%TD*%
D23*
%TO.C,R18*%
X82400000Y-43637500D03*
X82400000Y-41987500D03*
%TD*%
%TO.C,R13*%
X67200000Y-38125000D03*
X67200000Y-36475000D03*
%TD*%
D12*
%TO.C,R11*%
X84200000Y-45750000D03*
X84200000Y-47400000D03*
%TD*%
D27*
%TO.C,C16*%
X82300000Y-45800000D03*
X82300000Y-47350000D03*
%TD*%
D23*
%TO.C,R15*%
X73500000Y-34850000D03*
X73500000Y-33200000D03*
%TD*%
D21*
%TO.C,J8*%
X50100000Y-53400000D03*
D22*
X52640000Y-53400000D03*
X55180000Y-53400000D03*
X57720000Y-53400000D03*
%TD*%
D23*
%TO.C,R22*%
X64100000Y-93725000D03*
X64100000Y-92075000D03*
%TD*%
D21*
%TO.C,J10*%
X83400000Y-26075000D03*
D22*
X83400000Y-23535000D03*
%TD*%
D21*
%TO.C,J5*%
X53920000Y-96677500D03*
D22*
X56460000Y-96677500D03*
X59000000Y-96677500D03*
X61540000Y-96677500D03*
X64080000Y-96677500D03*
%TD*%
D28*
%TO.C,C8*%
X76412500Y-53600000D03*
X70187500Y-53600000D03*
%TD*%
D23*
%TO.C,R21*%
X61400000Y-93825000D03*
X61400000Y-92175000D03*
%TD*%
D27*
%TO.C,C14*%
X67800000Y-25825000D03*
X67800000Y-27375000D03*
%TD*%
D11*
%TO.C,C4*%
X67472500Y-56740000D03*
X65922500Y-56740000D03*
%TD*%
D29*
X42100000Y-20200000D02*
X87100000Y-20200000D01*
X87100000Y-100200000D01*
X42100000Y-100200000D01*
X42100000Y-20200000D01*
M02*
